<svg xmlns="http://www.w3.org/2000/svg" viewBox="0 0 2260 1020">
<g transform="translate(0.000000,1020.000000) scale(0.100000,-0.100000)" fill="#8E343C"><path d="M2287 6984 c-21 -11 -42 -14 -77 -9 -35 5 -56 2 -78 -9 -18 -9 -56
-16 -91 -16 -56 0 -64 -3 -102 -37 -43 -39 -139 -214 -139 -253 0 -12 -9 -38
-20 -60 -11 -22 -20 -49 -20 -60 0 -11 -9 -38 -20 -60 -11 -22 -20 -48 -20
-60 0 -11 -18 -56 -40 -100 -22 -44 -40 -89 -40 -100 0 -12 -9 -38 -20 -60
-11 -22 -20 -48 -20 -59 0 -11 -18 -57 -40 -102 -22 -46 -40 -91 -40 -101 0
-10 -18 -54 -40 -98 -22 -44 -40 -89 -40 -100 0 -12 -9 -38 -20 -60 -11 -22
-20 -49 -20 -60 0 -11 -9 -38 -20 -60 -11 -22 -20 -49 -20 -60 0 -11 -9 -38
-20 -60 -11 -22 -20 -49 -20 -60 0 -11 -9 -38 -20 -60 -11 -22 -20 -48 -20
-59 0 -11 -18 -58 -40 -105 -22 -47 -40 -92 -40 -101 0 -9 -9 -33 -20 -55 -11
-22 -20 -48 -20 -59 0 -11 -18 -58 -40 -105 -23 -50 -40 -100 -40 -121 0 -21
-16 -66 -40 -115 -22 -44 -40 -89 -40 -100 0 -11 -18 -56 -40 -100 -22 -44
-40 -89 -40 -102 0 -12 -17 -53 -37 -92 -20 -39 -40 -87 -44 -106 -9 -43 -36
-121 -60 -178 -11 -23 -19 -52 -19 -62 0 -11 -18 -56 -40 -100 -22 -44 -40
-89 -40 -100 0 -12 -9 -38 -20 -60 -11 -22 -20 -48 -20 -60 0 -11 -27 -74 -60
-140 -33 -66 -60 -129 -60 -140 0 -12 -9 -38 -20 -60 -11 -22 -20 -49 -20 -60
0 -11 -9 -38 -20 -60 -11 -22 -20 -49 -20 -60 0 -11 -9 -38 -20 -60 -11 -22
-20 -48 -20 -60 0 -11 -18 -56 -40 -100 -22 -44 -40 -89 -40 -100 0 -12 -9
-38 -20 -60 -11 -22 -20 -48 -20 -59 0 -11 -10 -41 -22 -65 -25 -51 -15 -96
21 -96 57 0 68 -36 21 -70 -33 -23 -39 -54 -14 -64 9 -3 125 -6 259 -6 221 0
249 -2 295 -20 28 -11 64 -20 80 -20 16 0 52 9 80 20 64 25 96 25 160 0 78
-31 563 -30 642 1 29 11 61 18 73 14 25 -8 132 -24 210 -31 48 -5 71 -1 115
16 47 19 60 20 96 10 25 -7 66 -9 105 -5 139 14 598 17 621 3 44 -25 1361 -33
1493 -9 39 7 140 15 225 19 118 6 163 12 187 25 18 9 41 17 53 17 48 0 240
122 265 169 8 14 33 46 55 71 44 48 180 306 180 340 0 12 9 38 20 60 11 22 20
48 20 60 0 11 18 56 40 100 22 44 40 89 40 100 0 12 9 38 20 60 11 22 20 49
20 60 0 11 9 38 20 60 11 22 20 48 20 60 0 11 18 56 40 100 22 44 40 89 40
100 0 12 9 38 20 60 11 22 20 49 20 60 0 11 9 38 20 60 11 22 20 49 20 60 0
11 9 38 20 60 11 22 20 49 20 60 0 11 9 38 20 60 18 36 20 59 20 286 0 247 0
247 56 299 96 90 104 98 165 174 35 44 59 83 59 98 0 13 9 41 20 63 11 22 20
58 20 80 0 22 9 58 20 80 11 22 20 48 20 60 0 11 18 56 40 100 22 44 40 89 40
100 0 11 18 56 40 100 34 68 40 89 40 143 0 58 3 68 40 117 22 29 40 64 40 77
0 13 9 41 20 63 15 30 20 59 20 120 0 61 5 90 20 120 15 30 20 59 20 120 0 61
-5 90 -20 120 -11 22 -20 49 -20 60 0 11 -9 38 -20 60 -11 22 -20 50 -20 64 0
38 -166 218 -235 253 -16 9 -46 29 -66 44 -51 40 -138 79 -176 79 -18 0 -55 9
-83 20 -49 19 -73 20 -575 20 -383 -1 -535 2 -565 11 -32 10 -48 10 -81 -1
-34 -12 -46 -12 -72 0 -18 7 -61 14 -97 15 -36 1 -84 6 -107 10 -33 6 -56 3
-102 -15 -52 -19 -72 -21 -143 -16 -155 11 -303 19 -340 17 -21 0 -55 -2 -75
-3 -21 -1 -52 5 -70 12 -29 13 -38 12 -90 -10 -70 -29 -141 -29 -205 0 -66 30
-403 30 -480 -1 -77 -30 -241 -30 -318 1 -43 17 -65 20 -100 15 -54 -9 -96 -9
-170 -1 -41 5 -62 2 -83 -10z m1285 -1330 c24 -13 47 -15 102 -9 39 3 87 6
106 5 19 0 252 -4 518 -8 484 -7 484 -7 513 -40 56 -62 16 -166 -82 -215 -56
-28 -56 -28 -888 -27 -941 0 -909 -3 -856 90 8 14 14 46 15 72 0 100 26 112
257 118 130 3 205 9 218 17 28 17 60 16 97 -3z m548 -1634 c28 -11 66 -20 85
-20 85 0 98 -75 35 -200 -22 -44 -40 -91 -40 -106 0 -34 -59 -94 -93 -94 -14
0 -44 -9 -68 -20 -35 -16 -66 -20 -156 -20 -89 0 -123 -4 -164 -20 -71 -28
-1094 -33 -1147 -6 -39 20 -60 20 -105 1 -86 -36 -147 -8 -147 65 0 23 9 58
20 80 11 22 20 58 20 80 0 22 9 58 20 80 11 22 20 51 20 65 0 28 70 111 105
126 51 20 1561 10 1615 -11z"/><path d="M10547 6855 c-22 -13 -67 -16 -238 -16 -200 -1 -213 -2 -254 -23 -23
-13 -52 -25 -64 -29 -32 -8 -26 -37 34 -157 30 -60 55 -119 55 -130 0 -12 9
-38 20 -60 11 -22 20 -49 20 -60 0 -11 9 -38 20 -60 24 -46 29 -264 8 -303 -6
-12 -15 -64 -19 -116 -17 -192 -79 -181 972 -181 856 0 856 0 919 -32 78 -40
89 -55 72 -101 -7 -18 -12 -59 -12 -91 0 -37 -7 -70 -20 -96 -11 -22 -20 -49
-20 -60 0 -11 -9 -38 -20 -60 -11 -22 -20 -49 -20 -60 0 -11 -9 -38 -20 -60
-11 -22 -20 -48 -20 -60 0 -11 -18 -56 -40 -100 -22 -44 -40 -89 -40 -100 0
-12 -9 -38 -20 -60 -11 -22 -20 -49 -20 -60 0 -11 -9 -38 -20 -60 -11 -22 -20
-48 -20 -60 0 -11 -27 -74 -60 -140 -43 -86 -60 -131 -60 -159 0 -26 -14 -69
-40 -122 -22 -46 -40 -91 -40 -101 0 -10 -18 -54 -40 -98 -22 -44 -40 -89 -40
-100 0 -11 -18 -56 -40 -100 -22 -44 -40 -89 -40 -100 0 -12 -9 -38 -20 -60
-11 -22 -20 -48 -20 -60 0 -11 -36 -92 -80 -180 -44 -88 -80 -169 -80 -180 0
-12 -9 -38 -20 -60 -11 -22 -20 -48 -20 -60 0 -11 -18 -56 -40 -100 -22 -44
-40 -89 -40 -100 0 -12 -9 -38 -20 -60 -11 -22 -20 -57 -20 -80 0 -27 -13 -66
-40 -120 -22 -44 -40 -89 -40 -100 0 -12 -9 -38 -20 -60 -60 -118 -18 -206 94
-195 39 3 87 6 106 5 487 -17 975 -9 1031 16 66 30 109 73 109 110 0 13 27 78
60 144 44 87 60 131 60 160 0 27 13 66 40 120 22 44 40 89 40 100 0 12 9 38
20 60 11 22 20 48 20 60 0 11 18 56 40 100 22 44 40 89 40 100 0 12 9 38 20
60 11 22 20 48 20 60 0 11 18 56 40 100 22 44 40 89 40 100 0 12 9 38 20 60
11 22 20 48 20 60 0 11 18 56 40 100 22 44 40 89 40 100 0 12 9 38 20 60 11
22 20 59 20 83 0 35 8 54 40 97 32 43 40 62 40 97 0 24 9 61 20 83 11 22 20
50 20 63 0 13 18 48 40 77 32 43 40 62 40 97 0 24 9 61 20 83 11 22 20 49 20
60 0 11 9 38 20 60 11 22 20 49 20 60 0 11 9 38 20 60 11 22 20 49 20 60 0 11
9 38 20 60 11 22 20 48 20 60 0 11 18 56 40 100 22 44 40 89 40 100 0 12 9 38
20 60 11 22 20 49 20 60 0 11 9 38 20 60 11 22 20 48 20 60 0 11 18 56 40 100
22 44 40 89 40 100 0 12 9 38 20 60 11 22 20 49 20 60 0 11 9 38 20 60 17 33
20 59 20 160 0 101 3 127 20 160 11 22 20 49 20 60 0 11 -9 38 -20 60 -11 22
-20 49 -20 60 0 11 -9 38 -20 60 -11 22 -20 49 -20 60 0 66 -62 135 -194 215
-18 11 -50 34 -72 50 -39 30 -39 30 -1224 32 -1074 2 -1188 4 -1222 19 -38 17
-59 16 -115 -7 -28 -11 -38 -11 -65 0 -50 21 -90 23 -121 6z"/></g>
<g transform="translate(0.000000,1020.000000) scale(0.100000,-0.100000)" fill="#3B3F43"><path d="M9516 9619 c-43 -18 -55 -19 -96 -8 -36 9 -55 9 -80 1 -18 -7 -64
-12 -101 -12 -45 0 -86 -7 -119 -20 -33 -13 -74 -20 -120 -20 -46 0 -87 -7
-120 -20 -33 -13 -74 -20 -120 -20 -46 0 -87 -7 -120 -20 -28 -11 -65 -20 -83
-20 -18 0 -52 -9 -76 -20 -24 -11 -52 -20 -62 -20 -11 0 -37 -9 -59 -20 -22
-11 -48 -20 -60 -20 -11 0 -56 -18 -100 -40 -44 -22 -89 -40 -100 -40 -12 0
-38 -9 -60 -20 -22 -11 -48 -20 -60 -20 -26 0 -674 -324 -720 -360 -19 -15
-48 -35 -65 -44 -42 -23 -119 -77 -195 -136 -79 -62 -153 -113 -200 -139 -19
-11 -82 -65 -140 -121 -58 -56 -121 -110 -140 -120 -43 -22 -102 -83 -125
-128 -9 -19 -88 -105 -175 -192 -87 -87 -168 -176 -179 -199 -12 -22 -48 -68
-81 -101 -33 -33 -67 -75 -76 -93 -9 -17 -29 -48 -44 -67 -15 -19 -44 -66 -63
-105 -20 -38 -54 -90 -77 -115 -154 -169 -132 -243 71 -238 156 4 174 17 304
232 11 18 40 57 65 86 25 29 51 64 59 79 8 14 26 42 41 61 15 19 35 50 44 68
9 18 53 69 96 112 44 44 89 98 101 121 23 47 384 411 430 435 16 8 41 33 55
55 14 22 39 48 56 57 17 10 58 40 92 68 34 28 91 66 126 84 36 18 81 45 100
60 19 15 67 44 105 64 66 34 113 64 213 137 30 21 61 33 99 38 47 7 61 14 87
44 32 37 180 117 216 117 11 0 56 18 100 40 44 22 88 40 99 40 11 0 57 18 102
40 49 23 98 40 118 40 21 0 72 17 121 40 47 22 99 40 117 40 18 0 55 9 83 20
28 11 73 20 100 20 27 0 72 9 100 20 37 15 74 20 140 20 66 0 103 5 140 20 43
17 74 20 200 20 126 0 157 3 200 20 74 29 287 29 361 -1 46 -18 58 -19 99 -8
36 9 55 9 80 1 18 -7 73 -12 121 -12 65 0 102 -5 139 -20 37 -15 74 -20 140
-20 66 0 103 -5 140 -20 28 -11 64 -20 80 -20 16 0 52 -9 80 -20 28 -11 74
-20 103 -20 30 0 70 -9 96 -20 24 -11 52 -20 62 -20 11 0 37 -9 59 -20 22 -11
49 -20 60 -20 11 0 38 -9 60 -20 22 -11 49 -20 60 -20 11 0 38 -9 60 -20 22
-11 48 -20 60 -20 11 0 74 -27 140 -60 66 -33 129 -60 140 -60 27 0 114 -44
169 -86 24 -19 55 -34 68 -34 29 0 115 -42 163 -80 19 -15 64 -42 99 -60 36
-18 83 -45 105 -61 78 -56 141 -99 171 -115 17 -9 55 -38 85 -64 30 -26 71
-55 90 -65 19 -10 98 -81 177 -158 78 -78 156 -148 172 -157 45 -23 99 -77
121 -121 11 -21 32 -46 46 -56 52 -35 164 -165 195 -226 11 -21 53 -70 94
-110 40 -40 84 -91 97 -113 13 -22 35 -58 51 -79 15 -22 43 -62 62 -90 19 -27
51 -80 70 -118 20 -37 51 -88 70 -113 21 -27 35 -57 35 -73 0 -17 14 -47 34
-73 42 -54 166 -300 166 -328 0 -12 9 -38 20 -60 11 -22 20 -48 20 -60 0 -11
18 -56 40 -100 22 -44 40 -89 40 -100 0 -12 9 -38 20 -60 11 -22 20 -49 20
-60 0 -11 9 -38 20 -60 11 -22 20 -58 20 -80 0 -22 9 -58 20 -80 11 -22 20
-58 20 -80 0 -22 9 -58 20 -80 15 -29 20 -59 20 -117 0 -63 5 -87 24 -123 38
-71 94 -59 66 14 -5 15 -10 81 -10 147 0 100 -3 126 -20 159 -13 26 -20 59
-20 100 0 51 -6 73 -40 140 -33 67 -40 89 -40 140 0 54 -7 73 -60 180 -33 66
-60 129 -60 140 0 11 -18 56 -40 100 -22 44 -40 90 -40 103 0 13 -15 44 -34
69 -19 24 -75 127 -126 228 -50 100 -105 201 -121 224 -56 78 -99 141 -115
171 -9 17 -36 51 -59 76 -24 25 -51 61 -60 80 -10 19 -30 50 -45 69 -15 19
-34 49 -43 65 -8 17 -78 93 -155 170 -76 77 -147 156 -157 175 -24 48 -82 108
-130 132 -22 12 -112 93 -201 181 -89 88 -175 167 -191 176 -17 9 -57 38 -89
64 -84 68 -149 112 -229 153 -38 20 -98 61 -133 90 -44 37 -72 54 -91 54 -17
0 -47 14 -73 35 -76 57 -623 325 -666 325 -20 0 -57 9 -81 20 -24 11 -51 20
-61 20 -10 0 -56 18 -101 40 -74 36 -91 40 -158 40 -67 0 -86 5 -161 40 -47
22 -99 40 -117 40 -18 0 -55 9 -83 20 -28 11 -73 20 -100 20 -27 0 -72 9 -100
20 -43 17 -74 20 -200 20 -126 0 -157 3 -200 20 -76 30 -529 29 -604 -1z"/><path d="M6526 6818 c-27 -15 -18 -44 22 -73 56 -42 67 -58 142 -207 70 -138
70 -138 70 -278 0 -121 -3 -146 -20 -180 -16 -31 -20 -59 -20 -140 0 -141 32
-166 153 -123 42 15 51 16 80 3 27 -13 151 -16 747 -20 715 -5 715 -5 765 -32
121 -63 163 -154 115 -248 -11 -22 -20 -49 -20 -60 0 -62 -123 -226 -188 -251
-13 -5 -207 -9 -432 -9 -386 0 -412 -1 -460 -20 -48 -19 -74 -20 -521 -20
-307 0 -477 -4 -490 -10 -22 -12 -109 -179 -109 -210 0 -26 -44 -114 -80 -160
-15 -19 -35 -49 -43 -67 -9 -17 -33 -48 -54 -70 -113 -117 -133 -185 -83 -283
11 -22 20 -59 20 -84 0 -102 111 -147 238 -97 60 24 205 29 262 9 25 -8 44 -8
80 1 41 11 53 10 99 -8 66 -27 136 -27 203 0 60 24 189 23 246 -1 27 -12 37
-12 65 0 57 25 263 25 326 1 29 -12 75 -21 104 -21 63 0 163 -44 195 -85 32
-40 33 -255 2 -315 -11 -22 -20 -50 -20 -63 0 -13 -18 -48 -40 -77 -22 -29
-40 -57 -40 -62 0 -38 -166 -158 -218 -158 -11 0 -40 -9 -66 -20 -44 -20 -59
-21 -353 -16 -170 3 -328 5 -353 5 -250 -5 -307 -3 -337 11 -29 13 -37 13 -65
0 -59 -26 -382 -26 -448 0 -33 13 -63 19 -81 15 -38 -8 -119 -97 -119 -130 0
-14 -27 -79 -60 -145 -44 -87 -60 -131 -60 -160 0 -23 -9 -58 -20 -80 -11 -22
-20 -50 -20 -63 0 -13 -15 -44 -34 -68 -18 -25 -57 -92 -86 -149 -29 -58 -65
-121 -81 -141 -34 -43 -37 -74 -10 -89 43 -22 2832 -13 2891 10 28 11 65 20
83 20 121 0 397 264 397 380 0 26 44 114 80 160 36 46 80 134 80 160 0 11 18
56 40 100 22 44 40 89 40 100 0 11 18 56 40 100 22 44 40 89 40 100 0 12 9 38
20 60 11 22 20 57 20 80 0 27 13 66 40 120 40 80 40 80 40 260 0 143 3 187 15
211 21 40 -1 225 -33 286 -31 58 20 163 98 203 100 51 280 270 280 340 0 11
18 56 40 100 22 44 40 89 40 100 0 12 9 38 20 60 11 22 20 50 20 63 0 13 18
48 40 77 37 49 40 59 40 117 0 54 6 75 40 143 22 44 40 89 40 100 0 12 9 38
20 60 11 22 20 58 20 80 0 22 9 58 20 80 16 32 20 59 20 140 0 81 -4 108 -20
140 -11 22 -20 58 -20 80 0 48 -49 151 -82 175 -13 8 -45 31 -73 50 -81 57
-244 135 -282 135 -18 0 -50 8 -71 18 -34 16 -121 17 -1197 24 -638 4 -1176 7
-1195 7 -19 1 -85 -1 -147 -5 -82 -4 -117 -2 -135 7 -27 15 -188 20 -212 7z"/><path d="M15272 4756 c-59 -29 -97 -54 -108 -73 -10 -15 -33 -48 -51 -72 -18
-24 -33 -55 -33 -68 0 -13 -9 -41 -20 -63 -11 -22 -20 -49 -20 -60 0 -11 -9
-38 -20 -60 -11 -22 -20 -49 -20 -60 0 -11 -9 -38 -20 -60 -11 -22 -20 -49
-20 -60 0 -11 -9 -38 -20 -60 -11 -22 -20 -49 -20 -60 0 -11 -9 -38 -20 -60
-11 -22 -20 -49 -20 -60 0 -11 -9 -38 -20 -60 -11 -22 -20 -49 -20 -60 0 -11
-9 -38 -20 -60 -11 -22 -20 -58 -20 -80 0 -24 -11 -61 -25 -90 -54 -107 -44
-113 174 -108 179 4 211 21 211 113 0 33 11 67 40 125 27 54 40 93 40 120 0
27 13 66 40 120 33 67 40 89 40 140 0 51 7 73 40 140 22 44 40 89 40 100 0 78
79 168 156 180 33 4 76 15 96 24 32 14 96 16 448 16 265 0 418 4 431 10 28 16
69 103 69 150 0 85 41 80 -638 80 -598 0 -598 0 -690 -44z"/><path d="M17040 4780 c-25 -10 -62 -19 -83 -19 -30 -1 -47 -9 -80 -41 -23 -22
-68 -64 -99 -93 -55 -51 -58 -57 -58 -101 0 -27 -8 -63 -20 -86 -11 -22 -20
-49 -20 -60 0 -11 -9 -38 -20 -60 -11 -22 -20 -49 -20 -60 0 -11 -9 -38 -20
-60 -11 -22 -20 -57 -20 -80 0 -27 -13 -66 -40 -120 -22 -44 -40 -89 -40 -100
0 -12 -9 -38 -20 -60 -11 -22 -20 -49 -20 -60 0 -11 -9 -38 -20 -60 -36 -70
-8 -199 49 -230 30 -16 1159 -13 1188 3 125 71 223 159 223 201 0 15 9 44 20
66 11 22 20 49 20 60 0 11 9 38 20 60 11 22 20 49 20 60 0 11 9 38 20 60 11
22 20 57 20 80 0 27 13 66 40 120 33 67 40 89 40 140 0 51 7 73 40 140 46 91
47 103 21 162 -10 24 -23 57 -27 73 -7 23 -22 37 -63 58 -73 36 -966 42 -1051
7z m599 -240 c24 -11 52 -20 62 -20 68 0 76 -86 19 -200 -27 -54 -40 -93 -40
-120 0 -23 -9 -58 -20 -80 -11 -22 -20 -49 -20 -60 0 -11 -9 -38 -20 -60 -11
-22 -20 -48 -20 -59 0 -11 -9 -40 -19 -63 -10 -24 -23 -56 -27 -73 -21 -70
-88 -86 -346 -83 -227 3 -227 3 -273 48 -55 54 -56 69 -10 160 19 38 35 79 35
90 0 12 9 38 20 60 11 22 20 57 20 80 0 27 13 66 40 120 22 44 40 91 40 105 0
38 74 113 145 146 80 38 337 43 414 9z"/><path d="M18464 4790 c-30 -12 -64 -58 -64 -87 0 -13 -9 -41 -20 -63 -11 -22
-20 -58 -20 -80 0 -22 -9 -58 -20 -80 -11 -22 -20 -49 -20 -60 0 -11 -9 -38
-20 -60 -11 -22 -20 -49 -20 -60 0 -11 -9 -38 -20 -60 -13 -26 -20 -59 -20
-100 0 -51 -6 -73 -40 -140 -27 -54 -40 -93 -40 -120 0 -23 -9 -58 -20 -80
-11 -22 -20 -49 -20 -60 0 -11 -9 -38 -20 -60 -31 -61 -26 -85 29 -143 50 -52
50 -52 578 -55 679 -3 688 0 843 300 36 70 50 109 50 138 0 23 9 58 20 80 11
22 20 49 20 60 0 11 9 38 20 60 11 22 20 49 20 60 0 11 9 38 20 60 11 22 20
58 20 80 0 22 9 58 20 80 11 22 20 57 20 80 0 29 15 71 55 150 86 172 85 173
-151 168 -193 -4 -224 -19 -224 -114 0 -25 -9 -62 -20 -84 -11 -22 -20 -49
-20 -60 0 -11 -9 -38 -20 -60 -11 -22 -20 -48 -20 -60 0 -11 -18 -56 -40 -100
-27 -54 -40 -93 -40 -120 0 -27 -13 -66 -40 -120 -27 -54 -40 -93 -40 -120 0
-87 -61 -173 -152 -215 -96 -44 -457 -35 -499 13 -34 38 -36 68 -9 122 11 22
20 57 20 80 0 27 13 66 40 120 22 44 40 89 40 100 0 12 9 38 20 60 11 22 20
58 20 80 0 22 9 58 20 80 11 22 20 49 20 60 0 11 9 38 20 60 11 22 20 48 20
60 0 11 16 52 35 90 40 79 43 105 16 120 -24 12 -317 13 -347 0z"/><path d="M20110 4793 c-40 -15 -110 -125 -110 -173 0 -11 -9 -38 -20 -60 -11
-22 -20 -58 -20 -80 0 -22 -9 -58 -20 -80 -11 -22 -20 -49 -20 -60 0 -11 -9
-38 -20 -60 -11 -22 -20 -49 -20 -60 0 -11 -9 -38 -20 -60 -11 -22 -20 -49
-20 -60 0 -11 -9 -38 -20 -60 -11 -22 -20 -49 -20 -60 0 -11 -9 -38 -20 -60
-11 -22 -20 -49 -20 -60 0 -11 -9 -38 -20 -60 -11 -22 -20 -49 -20 -60 0 -11
-9 -38 -20 -60 -11 -22 -20 -50 -20 -62 -1 -13 -7 -34 -15 -48 -20 -35 -18
-68 4 -80 26 -13 316 -13 342 0 29 16 69 103 69 150 0 27 13 66 40 120 29 58
40 92 40 126 0 41 5 51 49 97 52 54 94 59 441 48 194 -6 446 15 495 41 123 64
215 197 215 308 0 41 7 74 20 100 11 22 20 50 20 62 1 13 7 34 15 48 27 47 0
135 -55 185 -21 19 -235 25 -610 17 -25 -1 -175 0 -335 3 -159 2 -297 1 -305
-2z m540 -207 c36 -2 78 -7 93 -11 19 -5 41 -2 67 10 68 31 124 17 182 -43 57
-60 60 -84 20 -157 -52 -96 -87 -105 -394 -105 -313 0 -298 -6 -298 125 0 135
67 199 195 189 39 -3 99 -7 135 -8z"/><path d="M14464 4692 c-77 -37 -104 -71 -104 -129 0 -24 -9 -61 -20 -83 -16
-32 -20 -59 -20 -140 0 -81 -4 -108 -20 -140 -11 -22 -20 -49 -20 -60 0 -11
-9 -38 -20 -60 -11 -22 -20 -49 -20 -60 0 -11 -9 -38 -20 -60 -11 -22 -20 -58
-20 -80 0 -22 -9 -58 -20 -80 -11 -22 -20 -57 -20 -80 0 -26 -12 -65 -35 -110
-64 -126 -55 -133 170 -128 146 3 165 5 185 23 36 32 80 130 80 175 0 22 9 58
20 80 14 26 20 59 20 100 0 41 6 74 20 100 14 26 20 59 20 100 0 41 6 74 20
100 16 32 20 59 20 140 0 81 4 108 20 140 43 85 22 148 -82 239 -51 45 -81 47
-154 13z"/><path d="M6033 2169 c-24 -25 -13 -46 67 -128 44 -44 89 -100 101 -122 24 -49
465 -491 512 -516 18 -8 57 -37 87 -63 30 -26 69 -54 85 -63 17 -9 59 -43 95
-77 36 -34 79 -68 95 -77 17 -9 46 -28 65 -43 19 -15 64 -42 100 -60 36 -18
81 -45 100 -60 19 -15 82 -51 140 -80 58 -29 121 -65 140 -80 46 -36 214 -120
240 -120 11 0 56 -18 100 -40 44 -22 88 -40 99 -40 11 0 75 -27 142 -60 104
-51 130 -60 178 -60 34 0 73 -8 100 -20 24 -11 51 -20 61 -20 10 0 37 -9 61
-20 24 -11 58 -20 76 -20 18 0 55 -9 83 -20 28 -11 64 -20 80 -20 16 0 52 -9
80 -20 33 -13 74 -20 120 -20 46 0 87 -7 120 -20 43 -17 74 -20 199 -20 86 0
162 -5 181 -12 25 -8 44 -8 80 1 41 11 53 10 99 -8 76 -31 365 -31 441 -1 44
18 74 20 240 20 166 0 196 2 240 20 28 11 64 20 80 20 16 0 52 9 80 20 28 11
73 20 100 20 27 0 72 9 100 20 28 11 64 20 80 20 16 0 52 9 80 20 28 11 65 20
83 20 18 0 52 9 76 20 24 11 52 20 62 20 11 0 37 9 59 20 22 11 48 20 59 20
11 0 57 18 102 40 51 25 97 40 120 40 44 0 431 188 507 245 25 20 57 35 72 35
15 0 49 16 78 37 56 41 123 86 176 118 18 11 57 41 87 66 30 25 86 62 124 82
70 36 137 91 201 168 34 41 34 41 34 234 0 271 2 269 -145 129 -55 -53 -116
-104 -135 -115 -47 -26 -121 -77 -200 -139 -76 -59 -153 -113 -195 -136 -16
-9 -46 -29 -65 -44 -46 -36 -614 -320 -640 -320 -11 0 -56 -18 -100 -40 -44
-22 -88 -40 -99 -40 -11 0 -57 -18 -102 -40 -48 -23 -98 -40 -118 -40 -20 0
-56 -9 -80 -20 -24 -11 -51 -20 -61 -20 -10 0 -37 -9 -61 -20 -31 -14 -66 -20
-116 -20 -48 0 -89 -7 -123 -20 -28 -11 -73 -20 -100 -20 -27 0 -72 -9 -100
-20 -43 -17 -74 -20 -200 -20 -126 0 -157 -3 -200 -20 -77 -30 -523 -30 -600
0 -43 17 -74 20 -200 20 -126 0 -157 3 -200 20 -33 13 -74 20 -120 20 -46 0
-87 7 -120 20 -28 11 -64 20 -80 20 -16 0 -52 9 -80 20 -28 11 -64 20 -80 20
-16 0 -52 9 -80 20 -28 11 -65 20 -83 20 -18 0 -70 18 -116 40 -45 22 -91 40
-102 40 -11 0 -37 9 -59 20 -22 11 -48 20 -60 20 -11 0 -56 18 -100 40 -44 22
-88 40 -99 40 -11 0 -75 27 -142 60 -87 43 -133 60 -162 60 -32 0 -45 6 -71
34 -41 45 -114 97 -206 146 -88 47 -152 90 -235 158 -33 27 -85 62 -115 77
-30 15 -73 46 -95 69 -23 22 -65 57 -95 76 -29 19 -75 56 -101 83 -26 26 -51
47 -56 47 -17 0 -160 145 -178 180 -61 118 -124 163 -245 172 -52 4 -126 11
-165 14 -50 4 -74 2 -82 -7z"/></g>
</svg>