<svg xmlns="http://www.w3.org/2000/svg" viewBox="0 0 800 600" preserveAspectRatio="xMidYMid slice"><defs><linearGradient id="g" x1="0" y1="0" x2="1" y2="1"><stop offset="0" stop-color="#3A4048"/><stop offset="1" stop-color="#23262B"/></linearGradient></defs><rect width="800" height="600" fill="url(#g)"/><g stroke="#F7F5F1" stroke-opacity="0.22" stroke-width="5" fill="none"><line x1="120" y1="60" x2="120" y2="540"/><line x1="280" y1="60" x2="280" y2="540"/><line x1="440" y1="60" x2="440" y2="540"/><line x1="600" y1="60" x2="600" y2="540"/><line x1="760" y1="60" x2="760" y2="540"/><line x1="60" y1="140" x2="740" y2="140"/><line x1="60" y1="270" x2="740" y2="270"/><line x1="60" y1="400" x2="740" y2="400"/><line x1="60" y1="530" x2="740" y2="530"/><line x1="120" y1="530" x2="440" y2="150"/><line x1="440" y1="530" x2="740" y2="180"/></g><circle cx="120" cy="140" r="7" fill="#A8393E" fill-opacity="0.55"/><circle cx="120" cy="270" r="7" fill="#A8393E" fill-opacity="0.55"/><circle cx="120" cy="400" r="7" fill="#A8393E" fill-opacity="0.55"/><circle cx="120" cy="530" r="7" fill="#A8393E" fill-opacity="0.55"/><circle cx="280" cy="140" r="7" fill="#A8393E" fill-opacity="0.55"/><circle cx="280" cy="270" r="7" fill="#A8393E" fill-opacity="0.55"/><circle cx="280" cy="400" r="7" fill="#A8393E" fill-opacity="0.55"/><circle cx="280" cy="530" r="7" fill="#A8393E" fill-opacity="0.55"/><circle cx="440" cy="140" r="7" fill="#A8393E" fill-opacity="0.55"/><circle cx="440" cy="270" r="7" fill="#A8393E" fill-opacity="0.55"/><circle cx="440" cy="400" r="7" fill="#A8393E" fill-opacity="0.55"/><circle cx="440" cy="530" r="7" fill="#A8393E" fill-opacity="0.55"/><circle cx="600" cy="140" r="7" fill="#A8393E" fill-opacity="0.55"/><circle cx="600" cy="270" r="7" fill="#A8393E" fill-opacity="0.55"/><circle cx="600" cy="400" r="7" fill="#A8393E" fill-opacity="0.55"/><circle cx="600" cy="530" r="7" fill="#A8393E" fill-opacity="0.55"/><circle cx="760" cy="140" r="7" fill="#A8393E" fill-opacity="0.55"/><circle cx="760" cy="270" r="7" fill="#A8393E" fill-opacity="0.55"/><circle cx="760" cy="400" r="7" fill="#A8393E" fill-opacity="0.55"/><circle cx="760" cy="530" r="7" fill="#A8393E" fill-opacity="0.55"/></svg>