<svg xmlns="http://www.w3.org/2000/svg" viewBox="0 0 190 190">
<circle cx="95" cy="95" r="86" fill="none" stroke="#2E3238" stroke-width="1.6" stroke-opacity="0.35"/>
<path d="M114.9 95.0 Q114.9 95.0 112.9 99.0 Q110.8 103.0 108.7 107.8 Q106.5 112.6 100.8 111.5 Q95.0 110.4 89.5 111.1 Q84.0 111.7 80.7 107.8 Q77.4 103.9 77.5 99.5 Q77.6 95.0 76.9 90.2 Q76.2 85.5 81.3 83.7 Q86.4 81.9 90.7 79.2 Q95.0 76.5 99.4 79.1 Q103.8 81.7 107.0 84.4 Q110.3 87.2 112.6 91.1 Z" fill="none" stroke="#33604B" stroke-width="3" stroke-opacity="0.45" /><path d="M126.5 95.0 Q126.5 95.0 123.3 101.4 Q120.1 107.7 116.7 115.3 Q113.2 122.8 104.1 121.1 Q95.0 119.4 86.3 120.5 Q77.6 121.5 72.4 115.3 Q67.1 109.2 67.3 102.1 Q67.5 95.0 66.4 87.5 Q65.3 79.9 73.3 77.1 Q81.4 74.2 88.2 70.0 Q95.0 65.8 101.9 69.8 Q108.9 73.9 114.1 78.3 Q119.3 82.7 122.9 88.8 Z" fill="none" stroke="#33604B" stroke-width="3" stroke-opacity="0.59" /><path d="M138.2 95.0 Q138.2 95.0 133.7 103.7 Q129.3 112.4 124.6 122.7 Q120.0 133.0 107.5 130.7 Q95.0 128.4 83.1 129.8 Q71.2 131.2 64.0 122.8 Q56.9 114.4 57.1 104.7 Q57.3 95.0 55.8 84.7 Q54.3 74.3 65.3 70.5 Q76.4 66.6 85.7 60.8 Q95.0 55.0 104.5 60.6 Q114.0 66.1 121.1 72.1 Q128.2 78.1 133.2 86.6 Z" fill="none" stroke="#33604B" stroke-width="3" stroke-opacity="0.73" /><path d="M149.8 95.0 Q149.8 95.0 144.2 106.1 Q138.5 117.1 132.6 130.2 Q126.7 143.3 110.8 140.4 Q95.0 137.4 79.9 139.2 Q64.8 141.0 55.7 130.3 Q46.6 119.6 46.9 107.3 Q47.2 95.0 45.3 81.9 Q43.4 68.8 57.4 63.9 Q71.3 58.9 83.2 51.6 Q95.0 44.3 107.0 51.3 Q119.1 58.3 128.1 65.9 Q137.2 73.6 143.5 84.3 Z" fill="none" stroke="#33604B" stroke-width="3" stroke-opacity="0.86" /><path d="M161.4 95.0 Q161.4 95.0 154.6 108.4 Q147.8 121.8 140.6 137.7 Q133.4 153.5 114.2 150.0 Q95.0 146.4 76.7 148.6 Q58.4 150.7 47.4 137.8 Q36.3 124.8 36.7 109.9 Q37.0 95.0 34.7 79.1 Q32.4 63.2 49.4 57.3 Q66.3 51.3 80.7 42.4 Q95.0 33.5 109.6 42.0 Q124.2 50.5 135.2 59.8 Q146.1 69.0 153.8 82.0 Z" fill="none" stroke="#33604B" stroke-width="3" stroke-opacity="1.00" />
<circle cx="95" cy="95" r="5" fill="#2E3238"/>
<circle cx="95" cy="95" r="10" fill="none" stroke="#2E3238" stroke-width="1.4"/>
</svg>