<svg xmlns="http://www.w3.org/2000/svg" viewBox="0 0 560 190"><g transform="translate(152.8,92) scale(0.104000,-0.104000)" fill="#2E3238"><path transform="translate(0,0)" d="M302 340 313 353Q375 353 421.5 331.0Q468 309 493.5 271.0Q519 233 519 183Q519 130 491.5 87.5Q464 45 416.5 20.5Q369 -4 310 -4Q280 -4 239.0 -1.0Q198 2 164 2Q130 2 99.0 1.0Q68 0 43 0Q40 0 40.0 6.0Q40 12 43 12Q76 12 94.0 17.0Q112 22 118.5 37.0Q125 52 125 81V544Q125 573 119.0 587.5Q113 602 95.5 607.5Q78 613 44 613Q42 613 42.0 619.0Q42 625 44 625Q69 625 99.5 623.5Q130 622 164 622Q191 622 224.0 625.0Q257 628 283 628Q343 628 381.5 611.5Q420 595 439.0 565.5Q458 536 458 497Q458 441 416.0 399.0Q374 357 302 340ZM264 611Q242 611 228.5 606.5Q215 602 209.5 587.5Q204 573 204 542V346L171 354Q203 352 224.0 351.5Q245 351 248 351Q318 351 349.0 391.0Q380 431 380 489Q380 525 367.5 552.5Q355 580 330.0 595.5Q305 611 264 611ZM294 16Q367 16 400.5 53.5Q434 91 434 159Q434 233 393.0 280.5Q352 328 273 328Q253 329 227.0 328.0Q201 327 174 323L204 334V81Q204 58 210.5 43.5Q217 29 236.5 22.5Q256 16 294 16Z"/><path transform="translate(762,0)" d="M302 340 313 353Q375 353 421.5 331.0Q468 309 493.5 271.0Q519 233 519 183Q519 130 491.5 87.5Q464 45 416.5 20.5Q369 -4 310 -4Q280 -4 239.0 -1.0Q198 2 164 2Q130 2 99.0 1.0Q68 0 43 0Q40 0 40.0 6.0Q40 12 43 12Q76 12 94.0 17.0Q112 22 118.5 37.0Q125 52 125 81V544Q125 573 119.0 587.5Q113 602 95.5 607.5Q78 613 44 613Q42 613 42.0 619.0Q42 625 44 625Q69 625 99.5 623.5Q130 622 164 622Q191 622 224.0 625.0Q257 628 283 628Q343 628 381.5 611.5Q420 595 439.0 565.5Q458 536 458 497Q458 441 416.0 399.0Q374 357 302 340ZM264 611Q242 611 228.5 606.5Q215 602 209.5 587.5Q204 573 204 542V346L171 354Q203 352 224.0 351.5Q245 351 248 351Q318 351 349.0 391.0Q380 431 380 489Q380 525 367.5 552.5Q355 580 330.0 595.5Q305 611 264 611ZM294 16Q367 16 400.5 53.5Q434 91 434 159Q434 233 393.0 280.5Q352 328 273 328Q253 329 227.0 328.0Q201 327 174 323L204 334V81Q204 58 210.5 43.5Q217 29 236.5 22.5Q256 16 294 16Z"/><path transform="translate(1524,0)" d="M122 114V602L148 600V114Q148 62 167.0 37.0Q186 12 227 12Q229 12 229.0 6.0Q229 0 227 0Q206 0 184.5 1.0Q163 2 136 2Q110 2 85.0 1.0Q60 0 38 0Q36 0 36.0 6.0Q36 12 38 12Q82 12 102.0 37.0Q122 62 122 114ZM628 -13Q628 -15 623.5 -15.5Q619 -16 617 -15L146 543Q111 584 85.5 598.5Q60 613 35 613Q33 613 33.0 619.0Q33 625 35 625Q54 625 73.0 624.0Q92 623 108 623Q132 623 152.0 624.0Q172 625 182 625Q195 625 201.0 613.5Q207 602 230 573L620 103ZM628 510V-13L603 18V510Q603 562 584.5 587.5Q566 613 525 613Q523 613 523.0 619.0Q523 625 525 625Q546 625 568.0 623.5Q590 622 616 622Q641 622 665.0 623.5Q689 625 710 625Q712 625 712.0 619.0Q712 613 710 613Q668 613 648.0 587.5Q628 562 628 510Z"/></g><path d="M120 118 C 210 138, 330 100, 424 118" fill="none" stroke="#33604B" stroke-width="3.2" stroke-linecap="round"/><circle cx="428" cy="118" r="6.5" fill="#33604B"/><circle cx="428" cy="118" r="12" fill="none" stroke="#33604B" stroke-width="1.4" stroke-opacity="0.55"/><g transform="translate(148.3,163) scale(0.021000,-0.021000)" fill="#2E3238" fill-opacity="0.88"><path transform="translate(0,0)" d="M80 700V0H165V700ZM290 0Q392 0 471.0 44.0Q550 88 595.0 166.5Q640 245 640 350Q640 455 595.0 533.5Q550 612 471.0 656.0Q392 700 290 700H127V615H290Q349 615 398.0 596.5Q447 578 482.0 543.5Q517 509 536.0 460.0Q555 411 555 350Q555 289 536.0 240.0Q517 191 482.0 156.5Q447 122 398.0 103.5Q349 85 290 85H127V0Z"/><path transform="translate(1346,0)" d="M127 0H480V80H127ZM127 620H480V700H127ZM127 340H460V420H127ZM80 700V0H165V700Z"/><path transform="translate(2562,0)" d="M330 158 100 700H5L330 -35L655 700H560Z"/><path transform="translate(3888,0)" d="M127 0H480V80H127ZM127 620H480V700H127ZM127 340H460V420H127ZM80 700V0H165V700Z"/><path transform="translate(5104,0)" d="M80 700V0H440V80H165V700Z"/><path transform="translate(6220,0)" d="M130 350Q130 429 164.5 491.0Q199 553 259.0 589.0Q319 625 395 625Q472 625 531.5 589.0Q591 553 625.5 491.0Q660 429 660 350Q660 271 625.5 209.0Q591 147 531.5 111.0Q472 75 395 75Q319 75 259.0 111.0Q199 147 164.5 209.0Q130 271 130 350ZM40 350Q40 274 66.5 208.0Q93 142 141.0 93.5Q189 45 254.0 17.5Q319 -10 395 -10Q472 -10 536.5 17.5Q601 45 649.0 93.5Q697 142 723.5 208.0Q750 274 750 350Q750 427 723.5 492.5Q697 558 649.0 606.5Q601 655 536.5 682.5Q472 710 395 710Q319 710 254.0 682.5Q189 655 141.0 606.5Q93 558 66.5 492.5Q40 427 40 350Z"/><path transform="translate(7676,0)" d="M80 700V0H165V700ZM127 620H270Q338 620 380.5 587.5Q423 555 423 490Q423 426 380.5 393.0Q338 360 270 360H127V280H270Q338 280 391.5 305.5Q445 331 476.5 378.5Q508 426 508 490Q508 555 476.5 602.0Q445 649 391.5 674.5Q338 700 270 700H127Z"/><path transform="translate(8890,0)" d="M127 0H480V80H127ZM127 620H480V700H127ZM127 340H460V420H127ZM80 700V0H165V700Z"/><path transform="translate(10106,0)" d="M205 345 445 0H550L300 345ZM80 700V0H165V700ZM127 625H270Q315 625 349.5 609.0Q384 593 403.5 563.0Q423 533 423 490Q423 447 403.5 417.0Q384 387 349.5 371.0Q315 355 270 355H127V280H270Q338 280 391.5 305.5Q445 331 476.5 378.5Q508 426 508 490Q508 555 476.5 602.0Q445 649 391.5 674.5Q338 700 270 700H127Z"/><path transform="translate(11332,0)" d="M106 212 38 166Q61 120 97.5 79.5Q134 39 182.5 14.5Q231 -10 288 -10Q330 -10 368.5 4.0Q407 18 437.5 44.0Q468 70 485.5 107.0Q503 144 503 190Q503 238 486.0 272.5Q469 307 442.5 331.5Q416 356 385.0 372.0Q354 388 326 398Q265 419 229.5 440.5Q194 462 179.0 486.5Q164 511 164 540Q164 574 190.0 601.5Q216 629 273 629Q314 629 342.5 613.0Q371 597 391.0 572.0Q411 547 424 521L497 563Q480 600 450.0 633.5Q420 667 377.5 688.5Q335 710 278 710Q219 710 173.0 686.5Q127 663 101.0 622.0Q75 581 75 529Q75 481 93.5 448.0Q112 415 141.0 392.5Q170 370 202.0 355.5Q234 341 260 332Q300 318 335.5 300.5Q371 283 393.0 255.0Q415 227 415 180Q415 132 381.0 101.0Q347 70 291 70Q249 70 216.0 88.0Q183 106 156.5 138.0Q130 170 106 212Z"/></g></svg>