<svg xmlns="http://www.w3.org/2000/svg" viewBox="0 0 1800 1100"><g stroke-opacity="0.5"><path d="M474 300 Q474 300 488 323 Q502 346 482 363 Q462 380 432 378 Q403 377 378 382 Q354 388 332 378 Q310 369 289 355 Q268 342 258 321 Q248 300 272 284 Q297 269 311 258 Q325 246 337 222 Q350 197 377 206 Q405 215 433 218 Q461 220 460 245 Q458 271 466 285 Z" fill="none" stroke="#9DC3AD" stroke-width="1.4"/><path d="M496 300 Q496 300 513 328 Q530 357 505 377 Q480 398 444 397 Q408 395 378 401 Q348 408 321 396 Q294 385 268 368 Q242 352 230 326 Q217 300 247 281 Q278 262 295 248 Q312 234 328 204 Q343 174 377 185 Q411 195 445 199 Q480 202 478 233 Q476 264 486 282 Z" fill="none" stroke="#9DC3AD" stroke-width="1.4"/><path d="M518 300 Q518 300 539 334 Q559 367 529 392 Q499 417 456 415 Q413 413 378 421 Q342 428 310 414 Q277 401 247 381 Q216 362 201 331 Q186 300 223 277 Q259 254 279 238 Q299 221 318 185 Q336 150 376 163 Q416 176 458 180 Q499 183 497 220 Q494 257 506 279 Z" fill="none" stroke="#9DC3AD" stroke-width="1.4"/><path d="M540 300 Q540 300 564 339 Q587 378 553 407 Q518 435 468 433 Q418 431 377 440 Q336 449 299 433 Q261 416 226 394 Q190 371 173 336 Q156 300 198 274 Q239 247 263 228 Q287 209 308 167 Q329 126 376 141 Q422 156 470 160 Q518 165 515 208 Q513 250 526 275 Z" fill="none" stroke="#9DC3AD" stroke-width="1.4"/><path d="M562 300 Q562 300 589 344 Q616 388 576 421 Q537 454 480 451 Q423 449 377 459 Q331 469 288 451 Q245 432 204 407 Q164 381 145 341 Q125 300 173 270 Q220 240 247 218 Q274 196 298 149 Q322 102 375 119 Q428 136 482 141 Q537 146 534 195 Q531 243 546 272 Z" fill="none" stroke="#9DC3AD" stroke-width="1.4"/><path d="M584 300 Q584 300 614 350 Q644 399 600 436 Q556 472 492 469 Q429 467 377 478 Q325 489 276 469 Q228 448 183 420 Q138 391 116 345 Q94 300 148 266 Q201 233 231 208 Q261 184 288 131 Q315 78 374 97 Q434 117 495 122 Q556 128 552 182 Q549 237 566 268 Z" fill="none" stroke="#9DC3AD" stroke-width="1.4"/><path d="M606 300 Q606 300 639 355 Q672 410 624 450 Q575 491 505 488 Q434 484 376 497 Q319 510 265 487 Q212 464 162 432 Q112 401 88 350 Q64 300 123 263 Q182 225 215 198 Q248 171 278 113 Q308 55 374 76 Q439 97 507 103 Q575 109 571 170 Q567 230 586 265 Z" fill="none" stroke="#9DC3AD" stroke-width="1.4"/><path d="M628 300 Q628 300 664 360 Q701 420 647 465 Q594 509 517 506 Q439 502 376 516 Q313 530 254 505 Q196 480 141 445 Q86 410 60 355 Q33 300 98 259 Q162 218 199 188 Q236 159 268 95 Q301 31 373 54 Q445 77 520 84 Q594 91 589 157 Q585 223 606 261 Z" fill="none" stroke="#9DC3AD" stroke-width="1.4"/><path d="M650 300 Q650 300 689 366 Q729 431 671 479 Q613 528 529 524 Q444 520 376 535 Q307 550 243 523 Q179 496 120 458 Q60 420 31 360 Q2 300 73 255 Q143 211 183 179 Q223 146 259 77 Q294 7 373 32 Q451 57 532 65 Q613 72 608 144 Q603 216 626 258 Z" fill="none" stroke="#9DC3AD" stroke-width="1.4"/><path d="M1479 260 Q1479 260 1472 282 Q1466 303 1433 307 Q1401 310 1385 317 Q1369 323 1346 338 Q1323 353 1300 342 Q1277 332 1262 315 Q1247 299 1251 279 Q1255 260 1253 241 Q1250 223 1266 208 Q1281 193 1303 185 Q1326 177 1348 185 Q1369 194 1391 196 Q1413 198 1426 212 Q1440 226 1459 243 Z" fill="none" stroke="#F7F5F1" stroke-width="1.4"/><path d="M1513 260 Q1513 260 1505 288 Q1497 315 1455 319 Q1414 323 1394 332 Q1373 340 1344 359 Q1315 378 1286 364 Q1257 351 1239 330 Q1220 309 1225 284 Q1230 260 1227 236 Q1224 213 1243 194 Q1263 175 1291 165 Q1319 155 1347 166 Q1375 176 1402 179 Q1430 182 1447 200 Q1463 217 1488 239 Z" fill="none" stroke="#F7F5F1" stroke-width="1.4"/><path d="M1547 260 Q1547 260 1537 293 Q1527 327 1478 331 Q1428 336 1403 347 Q1378 357 1343 380 Q1308 403 1273 386 Q1238 370 1215 344 Q1193 319 1199 290 Q1205 260 1201 231 Q1198 203 1221 180 Q1244 157 1279 145 Q1313 133 1346 146 Q1380 159 1413 162 Q1447 165 1467 187 Q1487 209 1517 234 Z" fill="none" stroke="#F7F5F1" stroke-width="1.4"/><path d="M1582 260 Q1582 260 1570 299 Q1558 338 1500 344 Q1442 349 1412 362 Q1383 374 1342 401 Q1301 427 1260 408 Q1219 389 1192 359 Q1166 329 1173 295 Q1180 260 1175 226 Q1171 193 1199 166 Q1226 139 1266 125 Q1306 111 1346 126 Q1385 141 1424 145 Q1463 149 1487 174 Q1511 200 1546 230 Z" fill="none" stroke="#F7F5F1" stroke-width="1.4"/><path d="M1616 260 Q1616 260 1602 305 Q1589 350 1522 356 Q1455 363 1422 377 Q1388 390 1341 421 Q1294 452 1246 430 Q1199 408 1169 374 Q1138 339 1146 300 Q1154 260 1150 221 Q1145 183 1176 152 Q1208 121 1254 105 Q1300 89 1345 106 Q1390 124 1435 128 Q1480 133 1507 162 Q1535 191 1575 225 Z" fill="none" stroke="#F7F5F1" stroke-width="1.4"/><path d="M1650 260 Q1650 260 1635 311 Q1619 361 1544 369 Q1469 376 1431 392 Q1393 407 1340 442 Q1287 477 1233 452 Q1180 427 1145 388 Q1111 350 1120 305 Q1129 260 1124 216 Q1118 173 1154 138 Q1190 103 1241 85 Q1293 67 1344 86 Q1395 106 1446 111 Q1497 116 1528 149 Q1558 182 1604 221 Z" fill="none" stroke="#F7F5F1" stroke-width="1.4"/><path d="M1684 260 Q1684 260 1667 316 Q1650 373 1566 381 Q1482 389 1440 407 Q1398 424 1339 463 Q1279 502 1220 474 Q1160 446 1122 403 Q1084 360 1094 310 Q1104 260 1098 212 Q1092 163 1132 124 Q1171 85 1229 65 Q1287 45 1344 67 Q1400 88 1457 94 Q1514 100 1548 136 Q1582 173 1633 216 Z" fill="none" stroke="#F7F5F1" stroke-width="1.4"/><path d="M1718 260 Q1718 260 1700 322 Q1681 384 1588 393 Q1496 402 1449 422 Q1403 441 1337 484 Q1272 526 1206 495 Q1141 465 1099 417 Q1057 370 1068 315 Q1079 260 1072 207 Q1065 153 1109 110 Q1153 67 1217 45 Q1281 23 1343 47 Q1405 71 1468 77 Q1531 83 1568 124 Q1606 164 1662 212 Z" fill="none" stroke="#F7F5F1" stroke-width="1.4"/><path d="M1016 820 Q1016 820 1019 843 Q1022 866 1000 881 Q978 896 954 911 Q931 926 900 927 Q869 927 852 905 Q835 883 822 869 Q809 854 777 837 Q745 820 770 800 Q795 780 811 765 Q828 750 846 722 Q863 694 896 707 Q929 720 963 723 Q997 725 1008 750 Q1018 776 1017 798 Z" fill="none" stroke="#9DC3AD" stroke-width="1.4"/><path d="M1039 820 Q1039 820 1044 848 Q1048 875 1021 893 Q994 911 966 930 Q938 948 900 949 Q862 950 842 923 Q822 897 806 879 Q791 861 752 841 Q712 820 743 796 Q773 772 793 754 Q813 735 834 701 Q855 668 895 684 Q935 700 976 703 Q1017 706 1030 736 Q1043 766 1041 793 Z" fill="none" stroke="#9DC3AD" stroke-width="1.4"/><path d="M1063 820 Q1063 820 1068 852 Q1073 885 1041 906 Q1010 927 977 949 Q944 970 900 971 Q856 972 832 941 Q808 910 790 889 Q772 868 726 844 Q680 820 716 792 Q751 764 775 742 Q798 721 823 681 Q848 642 895 660 Q941 679 989 683 Q1037 686 1052 722 Q1067 757 1065 789 Z" fill="none" stroke="#9DC3AD" stroke-width="1.4"/><path d="M1087 820 Q1087 820 1093 857 Q1098 894 1062 919 Q1026 943 988 968 Q950 992 900 993 Q849 994 822 958 Q795 923 774 899 Q753 875 701 848 Q648 820 689 788 Q729 756 756 731 Q784 706 812 661 Q840 616 894 637 Q947 659 1002 663 Q1057 667 1074 707 Q1092 748 1089 784 Z" fill="none" stroke="#9DC3AD" stroke-width="1.4"/><path d="M1111 820 Q1111 820 1117 862 Q1124 904 1083 931 Q1042 958 999 986 Q957 1014 900 1015 Q843 1016 812 976 Q782 936 758 909 Q735 882 675 851 Q616 820 662 784 Q708 748 738 720 Q769 692 801 641 Q833 590 893 614 Q953 638 1015 643 Q1077 647 1096 693 Q1116 739 1114 779 Z" fill="none" stroke="#9DC3AD" stroke-width="1.4"/><path d="M1135 820 Q1135 820 1142 867 Q1149 913 1103 944 Q1058 974 1010 1005 Q963 1036 900 1037 Q836 1038 802 994 Q768 949 742 919 Q716 889 650 855 Q584 820 635 780 Q686 740 720 708 Q754 677 789 620 Q825 564 892 591 Q959 618 1028 623 Q1097 627 1119 679 Q1141 730 1138 775 Z" fill="none" stroke="#9DC3AD" stroke-width="1.4"/><path d="M1159 820 Q1159 820 1166 871 Q1174 923 1124 956 Q1074 990 1022 1024 Q970 1058 900 1059 Q830 1061 792 1011 Q755 962 726 929 Q697 896 625 858 Q552 820 608 776 Q664 731 702 697 Q739 663 778 600 Q817 538 891 567 Q965 597 1041 602 Q1117 608 1141 664 Q1165 720 1162 770 Z" fill="none" stroke="#9DC3AD" stroke-width="1.4"/><path d="M1183 820 Q1183 820 1191 876 Q1199 932 1144 969 Q1090 1005 1033 1043 Q976 1080 900 1081 Q823 1083 782 1029 Q741 975 710 939 Q678 903 599 862 Q520 820 581 772 Q642 723 683 686 Q724 648 767 580 Q810 512 890 544 Q971 576 1054 582 Q1137 588 1163 650 Q1189 711 1186 766 Z" fill="none" stroke="#9DC3AD" stroke-width="1.4"/><path d="M1206 820 Q1206 820 1216 881 Q1225 942 1165 981 Q1106 1021 1044 1062 Q983 1102 900 1103 Q817 1105 772 1047 Q728 988 694 949 Q660 910 574 865 Q488 820 554 768 Q621 715 665 674 Q709 634 756 560 Q802 485 890 521 Q977 556 1067 562 Q1157 569 1185 635 Q1214 702 1210 761 Z" fill="none" stroke="#9DC3AD" stroke-width="1.4"/><path d="M1230 820 Q1230 820 1240 886 Q1250 951 1186 994 Q1122 1037 1055 1080 Q989 1124 900 1126 Q810 1127 762 1064 Q715 1001 678 959 Q641 917 548 869 Q456 820 527 763 Q599 707 647 663 Q695 619 745 539 Q794 459 889 497 Q983 535 1080 542 Q1177 549 1208 621 Q1238 693 1234 756 Z" fill="none" stroke="#9DC3AD" stroke-width="1.4"/><path d="M1729 780 Q1729 780 1722 792 Q1716 805 1710 819 Q1704 833 1685 835 Q1667 837 1650 836 Q1634 834 1615 833 Q1596 833 1573 825 Q1551 817 1548 799 Q1545 780 1551 763 Q1557 745 1579 739 Q1601 732 1615 721 Q1629 710 1649 714 Q1668 719 1683 726 Q1697 734 1707 744 Q1716 755 1722 768 Z" fill="none" stroke="#F7F5F1" stroke-width="1.4"/><path d="M1753 780 Q1753 780 1745 796 Q1736 812 1728 831 Q1720 849 1696 852 Q1672 855 1651 853 Q1629 851 1604 850 Q1579 849 1550 839 Q1520 829 1517 804 Q1513 780 1521 757 Q1528 734 1557 726 Q1586 717 1605 703 Q1623 688 1648 694 Q1674 699 1693 709 Q1712 719 1724 733 Q1736 748 1745 764 Z" fill="none" stroke="#F7F5F1" stroke-width="1.4"/><path d="M1778 780 Q1778 780 1767 800 Q1756 820 1747 843 Q1737 865 1707 869 Q1677 873 1651 870 Q1624 868 1593 867 Q1563 865 1526 853 Q1490 840 1485 810 Q1481 780 1490 752 Q1500 724 1535 713 Q1571 703 1594 684 Q1617 666 1648 673 Q1679 680 1703 693 Q1727 705 1742 722 Q1757 740 1767 760 Z" fill="none" stroke="#F7F5F1" stroke-width="1.4"/><path d="M1802 780 Q1802 780 1790 804 Q1777 828 1765 855 Q1754 881 1718 886 Q1682 890 1651 887 Q1619 885 1583 883 Q1546 882 1502 867 Q1459 852 1453 816 Q1448 780 1460 746 Q1471 713 1513 700 Q1556 688 1583 666 Q1610 644 1647 653 Q1685 661 1713 676 Q1742 690 1759 711 Q1777 732 1790 756 Z" fill="none" stroke="#F7F5F1" stroke-width="1.4"/><path d="M1827 780 Q1827 780 1812 808 Q1797 835 1784 866 Q1770 898 1729 903 Q1688 908 1651 905 Q1615 901 1572 900 Q1529 898 1479 881 Q1428 863 1422 822 Q1416 780 1429 741 Q1442 702 1491 688 Q1541 673 1572 648 Q1604 622 1647 632 Q1690 642 1723 659 Q1756 676 1777 700 Q1797 725 1812 752 Z" fill="none" stroke="#F7F5F1" stroke-width="1.4"/><path d="M1851 780 Q1851 780 1834 811 Q1817 843 1802 878 Q1787 914 1740 920 Q1693 926 1651 922 Q1610 918 1561 916 Q1513 914 1455 895 Q1397 875 1390 827 Q1383 780 1398 736 Q1413 691 1469 675 Q1526 658 1562 629 Q1597 600 1647 612 Q1696 623 1733 643 Q1771 662 1794 689 Q1818 717 1834 748 Z" fill="none" stroke="#F7F5F1" stroke-width="1.4"/><path d="M1876 780 Q1876 780 1857 815 Q1838 851 1821 890 Q1804 930 1751 937 Q1698 944 1651 939 Q1605 935 1550 933 Q1496 931 1431 909 Q1367 886 1359 833 Q1351 780 1368 730 Q1385 680 1448 662 Q1510 643 1551 611 Q1591 579 1646 592 Q1701 604 1743 626 Q1786 647 1812 678 Q1838 709 1857 745 Z" fill="none" stroke="#F7F5F1" stroke-width="1.4"/><path d="M229 900 Q229 900 227 916 Q225 932 212 945 Q200 959 181 968 Q163 978 141 975 Q119 972 98 967 Q77 962 79 942 Q82 922 70 911 Q57 900 52 883 Q48 865 66 855 Q84 845 101 834 Q118 823 136 836 Q155 848 173 849 Q192 850 199 862 Q206 875 218 888 Z" fill="none" stroke="#F7F5F1" stroke-width="1.4"/><path d="M257 900 Q257 900 254 921 Q251 942 235 959 Q219 977 194 990 Q170 1002 141 998 Q113 994 85 987 Q57 981 61 955 Q64 928 48 914 Q32 900 25 877 Q19 855 43 841 Q66 828 88 814 Q111 800 135 816 Q160 833 184 833 Q208 834 217 851 Q227 867 242 884 Z" fill="none" stroke="#F7F5F1" stroke-width="1.4"/><path d="M284 900 Q284 900 281 926 Q277 952 257 973 Q237 995 207 1011 Q177 1026 142 1021 Q106 1016 72 1008 Q37 1000 42 968 Q46 935 26 918 Q6 900 -2 872 Q-10 844 20 827 Q49 811 76 793 Q104 776 134 796 Q164 817 194 817 Q223 818 235 839 Q247 860 266 880 Z" fill="none" stroke="#F7F5F1" stroke-width="1.4"/><path d="M312 900 Q312 900 308 931 Q304 961 280 987 Q256 1013 220 1032 Q184 1050 142 1044 Q100 1038 59 1029 Q18 1020 23 981 Q28 942 5 921 Q-19 900 -29 867 Q-38 833 -3 813 Q31 794 64 773 Q97 752 133 776 Q169 801 204 802 Q239 803 253 827 Q267 852 290 876 Z" fill="none" stroke="#F7F5F1" stroke-width="1.4"/><path d="M340 900 Q340 900 335 936 Q330 971 302 1001 Q275 1032 233 1053 Q191 1075 142 1067 Q93 1060 46 1049 Q-2 1039 4 994 Q11 949 -17 924 Q-45 900 -56 861 Q-67 822 -26 800 Q14 777 52 753 Q90 728 132 757 Q174 785 215 786 Q255 787 272 816 Q288 844 314 872 Z" fill="none" stroke="#F7F5F1" stroke-width="1.4"/><path d="M367 900 Q367 900 362 941 Q356 981 325 1015 Q293 1050 246 1074 Q198 1099 142 1090 Q87 1082 33 1070 Q-22 1058 -15 1007 Q-7 955 -39 928 Q-70 900 -83 856 Q-96 812 -49 786 Q-3 760 40 732 Q83 705 131 737 Q178 769 225 770 Q271 772 290 804 Q308 837 338 868 Z" fill="none" stroke="#F7F5F1" stroke-width="1.4"/><path d="M395 900 Q395 900 389 946 Q382 991 347 1030 Q312 1068 258 1095 Q205 1123 143 1114 Q80 1104 19 1091 Q-41 1077 -33 1020 Q-25 962 -61 931 Q-96 900 -110 850 Q-124 801 -72 772 Q-21 743 28 712 Q76 681 129 717 Q183 753 235 754 Q287 756 308 792 Q329 829 362 865 Z" fill="none" stroke="#F7F5F1" stroke-width="1.4"/></g></svg>