<svg xmlns="http://www.w3.org/2000/svg" viewBox="0 0 1200 900" preserveAspectRatio="xMidYMid slice"><defs><linearGradient id="g" x1="0" y1="0" x2="1" y2="1"><stop offset="0" stop-color="#33604B"/><stop offset="1" stop-color="#27493A"/></linearGradient></defs><rect width="1200" height="900" fill="url(#g)"/><g stroke="#F7F5F1" stroke-opacity="0.3" fill="none" stroke-width="2.5"><path d="M154 164 L1064 149 L1105 759 L76 792 Z" stroke-width="3.5" stroke-dasharray="14 10"/><path d="M214 204 C 420 304, 700 487, 1035 709" stroke-width="24" stroke-opacity="0.14"/><line x1="176" y1="178" x2="208" y2="407"/><line x1="333" y1="188" x2="312" y2="412"/><line x1="474" y1="170" x2="455" y2="436"/><line x1="646" y1="183" x2="640" y2="440"/><line x1="782" y1="175" x2="803" y2="434"/><line x1="925" y1="164" x2="950" y2="439"/><line x1="221" y1="503" x2="195" y2="771"/><line x1="368" y1="532" x2="362" y2="755"/><line x1="516" y1="504" x2="530" y2="734"/><line x1="662" y1="537" x2="675" y2="730"/><line x1="811" y1="503" x2="839" y2="736"/><line x1="949" y1="540" x2="911" y2="753"/><circle cx="154" cy="164" r="10" stroke-width="3"/><circle cx="1064" cy="149" r="10" stroke-width="3"/><circle cx="1105" cy="759" r="10" stroke-width="3"/><circle cx="76" cy="792" r="10" stroke-width="3"/><circle cx="861" cy="538" r="9" stroke-opacity="0.22"/><circle cx="408" cy="327" r="9" stroke-opacity="0.22"/><circle cx="582" cy="355" r="13" stroke-opacity="0.22"/><circle cx="207" cy="324" r="15" stroke-opacity="0.22"/><circle cx="841" cy="541" r="19" stroke-opacity="0.22"/><circle cx="722" cy="656" r="11" stroke-opacity="0.22"/><circle cx="650" cy="692" r="13" stroke-opacity="0.22"/><circle cx="1029" cy="355" r="20" stroke-opacity="0.22"/><circle cx="683" cy="176" r="10" stroke-opacity="0.22"/><circle cx="207" cy="202" r="18" stroke-opacity="0.22"/><circle cx="494" cy="717" r="20" stroke-opacity="0.22"/><circle cx="1036" cy="622" r="10" stroke-opacity="0.22"/><circle cx="832" cy="641" r="19" stroke-opacity="0.22"/><circle cx="283" cy="353" r="12" stroke-opacity="0.22"/><g stroke-opacity="0.4"><line x1="1030" y1="220" x2="1030" y2="160"/><path d="M1030 150 L1020 172 L1040 172 Z" fill="#F7F5F1" fill-opacity="0.4" stroke="none"/></g></g></svg>