<svg xmlns="http://www.w3.org/2000/svg" viewBox="0 0 1200 900" preserveAspectRatio="xMidYMid slice"><defs><linearGradient id="g" x1="0" y1="0" x2="1" y2="1"><stop offset="0" stop-color="#3A4048"/><stop offset="1" stop-color="#2E3238"/></linearGradient></defs><rect width="1200" height="900" fill="url(#g)"/><g stroke="#F7F5F1" stroke-opacity="0.25" stroke-width="2.5" fill="none"><rect x="-40" y="663" width="202" height="297"/><rect x="-22" y="687" width="16" height="22"/><rect x="-22" y="773" width="16" height="22"/><rect x="35" y="687" width="16" height="22"/><rect x="35" y="773" width="16" height="22"/><rect x="93" y="687" width="16" height="22"/><rect x="93" y="773" width="16" height="22"/><rect x="93" y="858" width="16" height="22"/><rect x="201" y="458" width="143" height="502"/><rect x="219" y="482" width="16" height="22"/><rect x="219" y="667" width="16" height="22"/><rect x="219" y="759" width="16" height="22"/><rect x="219" y="852" width="16" height="22"/><rect x="276" y="574" width="16" height="22"/><rect x="276" y="667" width="16" height="22"/><rect x="276" y="852" width="16" height="22"/><rect x="376" y="526" width="194" height="434"/><rect x="394" y="550" width="16" height="22"/><rect x="394" y="648" width="16" height="22"/><rect x="394" y="747" width="16" height="22"/><rect x="449" y="550" width="16" height="22"/><rect x="449" y="648" width="16" height="22"/><rect x="449" y="747" width="16" height="22"/><rect x="449" y="846" width="16" height="22"/><rect x="503" y="550" width="16" height="22"/><rect x="503" y="648" width="16" height="22"/><rect x="503" y="747" width="16" height="22"/><rect x="503" y="846" width="16" height="22"/><rect x="637" y="522" width="256" height="438"/><rect x="655" y="646" width="16" height="22"/><rect x="655" y="844" width="16" height="22"/><rect x="712" y="546" width="16" height="22"/><rect x="712" y="646" width="16" height="22"/><rect x="712" y="844" width="16" height="22"/><rect x="768" y="546" width="16" height="22"/><rect x="768" y="646" width="16" height="22"/><rect x="768" y="745" width="16" height="22"/><rect x="768" y="844" width="16" height="22"/><rect x="824" y="546" width="16" height="22"/><rect x="824" y="646" width="16" height="22"/><rect x="824" y="745" width="16" height="22"/><rect x="824" y="844" width="16" height="22"/><rect x="938" y="490" width="158" height="470"/><rect x="956" y="514" width="16" height="22"/><rect x="956" y="686" width="16" height="22"/><rect x="956" y="772" width="16" height="22"/><rect x="1020" y="600" width="16" height="22"/><rect x="1020" y="686" width="16" height="22"/><rect x="1020" y="772" width="16" height="22"/><rect x="1124" y="602" width="143" height="358"/><rect x="1142" y="626" width="16" height="22"/><rect x="1142" y="732" width="16" height="22"/><rect x="1142" y="838" width="16" height="22"/><rect x="1198" y="626" width="16" height="22"/><rect x="1198" y="732" width="16" height="22"/></g></svg>