<svg xmlns="http://www.w3.org/2000/svg" viewBox="0 0 1200 900" preserveAspectRatio="xMidYMid slice"><defs><linearGradient id="g" x1="0" y1="0" x2="1" y2="1"><stop offset="0" stop-color="#EFECE5"/><stop offset="1" stop-color="#E4E0D6"/></linearGradient></defs><rect width="1200" height="900" fill="url(#g)"/><g stroke="#2E3238" stroke-opacity="0.25" stroke-width="2.5" fill="none"><rect x="-40" y="543" width="192" height="417"/><rect x="-22" y="661" width="16" height="22"/><rect x="-22" y="850" width="16" height="22"/><rect x="32" y="567" width="16" height="22"/><rect x="32" y="661" width="16" height="22"/><rect x="32" y="756" width="16" height="22"/><rect x="32" y="850" width="16" height="22"/><rect x="86" y="567" width="16" height="22"/><rect x="86" y="661" width="16" height="22"/><rect x="86" y="850" width="16" height="22"/><rect x="186" y="535" width="234" height="425"/><rect x="204" y="559" width="16" height="22"/><rect x="272" y="559" width="16" height="22"/><rect x="272" y="655" width="16" height="22"/><rect x="272" y="752" width="16" height="22"/><rect x="340" y="655" width="16" height="22"/><rect x="340" y="752" width="16" height="22"/><rect x="340" y="848" width="16" height="22"/><rect x="458" y="492" width="123" height="468"/><rect x="476" y="602" width="16" height="22"/><rect x="476" y="687" width="16" height="22"/><rect x="476" y="773" width="16" height="22"/><rect x="476" y="858" width="16" height="22"/><rect x="522" y="516" width="16" height="22"/><rect x="522" y="602" width="16" height="22"/><rect x="522" y="687" width="16" height="22"/><rect x="646" y="507" width="133" height="453"/><rect x="664" y="861" width="16" height="22"/><rect x="716" y="531" width="16" height="22"/><rect x="716" y="614" width="16" height="22"/><rect x="716" y="696" width="16" height="22"/><rect x="716" y="779" width="16" height="22"/><rect x="716" y="861" width="16" height="22"/><rect x="816" y="657" width="232" height="303"/><rect x="834" y="681" width="16" height="22"/><rect x="834" y="769" width="16" height="22"/><rect x="834" y="856" width="16" height="22"/><rect x="901" y="681" width="16" height="22"/><rect x="901" y="769" width="16" height="22"/><rect x="969" y="681" width="16" height="22"/><rect x="969" y="769" width="16" height="22"/><rect x="969" y="856" width="16" height="22"/><rect x="1096" y="416" width="158" height="544"/><rect x="1114" y="440" width="16" height="22"/><rect x="1114" y="524" width="16" height="22"/><rect x="1114" y="608" width="16" height="22"/><rect x="1114" y="692" width="16" height="22"/><rect x="1178" y="440" width="16" height="22"/><rect x="1178" y="524" width="16" height="22"/><rect x="1178" y="608" width="16" height="22"/><rect x="1178" y="692" width="16" height="22"/><rect x="1178" y="776" width="16" height="22"/><rect x="1178" y="860" width="16" height="22"/></g></svg>