<svg xmlns="http://www.w3.org/2000/svg" viewBox="0 0 1200 900" preserveAspectRatio="xMidYMid slice"><defs><linearGradient id="g" x1="0" y1="0" x2="1" y2="1"><stop offset="0" stop-color="#4A5058"/><stop offset="1" stop-color="#3A4048"/></linearGradient></defs><rect width="1200" height="900" fill="url(#g)"/><g stroke="#F7F5F1" stroke-opacity="0.25" stroke-width="2.5" fill="none"><rect x="-40" y="401" width="237" height="559"/><rect x="-22" y="425" width="16" height="22"/><rect x="-22" y="598" width="16" height="22"/><rect x="-22" y="771" width="16" height="22"/><rect x="-22" y="858" width="16" height="22"/><rect x="47" y="425" width="16" height="22"/><rect x="47" y="512" width="16" height="22"/><rect x="47" y="598" width="16" height="22"/><rect x="47" y="684" width="16" height="22"/><rect x="47" y="771" width="16" height="22"/><rect x="116" y="425" width="16" height="22"/><rect x="116" y="512" width="16" height="22"/><rect x="116" y="598" width="16" height="22"/><rect x="116" y="684" width="16" height="22"/><rect x="116" y="771" width="16" height="22"/><rect x="116" y="858" width="16" height="22"/><rect x="256" y="686" width="243" height="274"/><rect x="274" y="788" width="16" height="22"/><rect x="274" y="866" width="16" height="22"/><rect x="327" y="710" width="16" height="22"/><rect x="327" y="788" width="16" height="22"/><rect x="327" y="866" width="16" height="22"/><rect x="380" y="710" width="16" height="22"/><rect x="380" y="866" width="16" height="22"/><rect x="434" y="710" width="16" height="22"/><rect x="434" y="866" width="16" height="22"/><rect x="535" y="509" width="190" height="451"/><rect x="553" y="533" width="16" height="22"/><rect x="553" y="697" width="16" height="22"/><rect x="553" y="780" width="16" height="22"/><rect x="553" y="862" width="16" height="22"/><rect x="606" y="862" width="16" height="22"/><rect x="660" y="533" width="16" height="22"/><rect x="660" y="615" width="16" height="22"/><rect x="660" y="697" width="16" height="22"/><rect x="660" y="780" width="16" height="22"/><rect x="660" y="862" width="16" height="22"/><rect x="776" y="632" width="138" height="328"/><rect x="794" y="656" width="16" height="22"/><rect x="848" y="656" width="16" height="22"/><rect x="848" y="752" width="16" height="22"/><rect x="848" y="848" width="16" height="22"/><rect x="947" y="670" width="184" height="290"/><rect x="965" y="777" width="16" height="22"/><rect x="1016" y="694" width="16" height="22"/><rect x="1016" y="777" width="16" height="22"/><rect x="1068" y="777" width="16" height="22"/><rect x="1068" y="861" width="16" height="22"/><rect x="1187" y="567" width="223" height="393"/><rect x="1205" y="591" width="16" height="22"/><rect x="1205" y="679" width="16" height="22"/><rect x="1205" y="768" width="16" height="22"/><rect x="1205" y="856" width="16" height="22"/><rect x="1269" y="591" width="16" height="22"/><rect x="1269" y="679" width="16" height="22"/><rect x="1269" y="768" width="16" height="22"/><rect x="1269" y="856" width="16" height="22"/><rect x="1334" y="591" width="16" height="22"/><rect x="1334" y="679" width="16" height="22"/><rect x="1334" y="856" width="16" height="22"/></g></svg>