<svg xmlns="http://www.w3.org/2000/svg" viewBox="0 78 1907 896">
<g transform="translate(0.000000,1020.000000) scale(0.100000,-0.100000)" fill="#C9787C">
<path d="M3812 8818 c-37 -37 53 -212 216 -424 26 -33 59 -81 75 -105 57 -92
138 -198 188 -248 20 -20 44 -54 53 -76 10 -22 30 -53 45 -70 15 -16 40 -51
54 -76 15 -26 48 -73 75 -105 26 -33 60 -79 75 -104 15 -25 42 -65 60 -90 67
-90 128 -176 152 -213 14 -20 56 -76 93 -123 84 -108 136 -180 157 -219 10
-16 32 -46 50 -65 18 -19 43 -53 56 -75 31 -52 98 -144 178 -247 35 -45 79
-106 99 -137 19 -30 50 -75 69 -99 18 -24 33 -48 33 -54 0 -6 15 -28 33 -49
51 -61 79 -99 114 -157 18 -30 55 -79 81 -110 27 -32 64 -79 82 -107 44 -65
147 -173 183 -192 36 -18 59 -5 113 67 22 29 55 71 75 93 19 23 61 77 92 120
31 42 83 111 115 153 85 114 198 271 240 336 20 32 61 88 89 125 202 261 185
250 347 238 232 -16 383 -4 466 39 14 7 53 28 88 46 42 22 95 65 160 129 114
113 125 127 217 280 103 170 92 165 500 201 61 5 191 14 290 20 217 13 221 14
260 67 16 23 42 59 57 80 16 21 48 63 72 93 121 149 94 227 -74 215 -47 -4
-110 -13 -140 -20 -121 -30 -179 -38 -270 -40 -104 -3 -217 -16 -355 -41 -49
-9 -133 -20 -185 -24 -96 -8 -200 -23 -278 -40 -23 -6 -59 -10 -80 -10 -20 0
-75 -7 -122 -15 -47 -8 -111 -15 -144 -15 -55 0 -297 -39 -361 -59 -84 -25
-122 -50 -183 -122 -34 -41 -81 -89 -103 -107 -22 -19 -51 -50 -63 -70 -13
-21 -57 -71 -97 -112 -41 -41 -81 -85 -89 -96 -47 -67 -339 -369 -368 -381
-57 -24 -84 26 -43 78 10 13 27 42 39 64 11 22 32 51 47 65 15 14 40 52 56 85
15 33 75 131 133 217 184 276 228 365 207 417 -22 51 -62 79 -161 112 -52 17
-100 35 -106 40 -6 5 -42 19 -80 33 -207 71 -307 106 -374 134 -41 17 -111 42
-155 57 -160 54 -211 72 -245 90 -19 10 -71 30 -115 45 -44 15 -150 52 -235
83 -85 30 -168 60 -185 65 -16 6 -104 38 -195 70 -91 33 -185 67 -210 76 -25
8 -83 29 -130 46 -47 17 -107 38 -135 46 -27 9 -75 24 -105 34 -105 33 -215
73 -245 87 -40 20 -190 63 -218 63 -13 0 -28 -5 -35 -12z"/>
<path d="M2891 7123 c-49 -5 -105 -41 -125 -82 -20 -40 -11 -326 12 -365 38
-64 59 -71 217 -71 l144 0 41 40 c66 63 72 81 73 224 2 144 -18 216 -63 238
-27 12 -228 23 -299 16z"/>
<path d="M3569 7112 c-13 -11 -37 -25 -54 -33 -46 -22 -63 -87 -59 -224 7
-234 19 -247 236 -249 177 -1 179 0 227 78 46 78 54 194 21 306 -25 83 -43
110 -74 110 -12 0 -30 7 -40 15 -31 24 -226 21 -257 -3z"/>
<path d="M9443 6941 c-49 -36 -57 -56 -48 -123 10 -68 31 -88 95 -88 86 0 107
18 116 97 8 76 2 91 -47 114 -65 31 -73 31 -116 0z"/>
<path d="M9743 6948 c-46 -22 -59 -138 -20 -183 18 -21 32 -26 79 -28 72 -3
77 3 80 92 3 71 2 73 -30 102 -34 30 -70 36 -109 17z"/>
<path d="M9419 6661 c-70 -70 -10 -211 90 -211 63 0 101 51 101 135 0 77 -14
95 -73 95 -23 0 -52 3 -64 6 -17 5 -31 -2 -54 -25z"/>
<path d="M9722 6667 c-27 -32 -35 -115 -15 -154 17 -36 21 -38 68 -40 73 -2
101 27 111 113 9 85 1 94 -86 94 -44 0 -71 -5 -78 -13z"/>
<path d="M3635 6463 c-85 -7 -105 -14 -140 -50 l-35 -36 0 -162 c0 -182 8
-207 79 -249 49 -28 301 -26 341 3 87 63 101 286 27 419 -17 32 -37 54 -50 57
-59 13 -143 25 -161 23 -12 -1 -39 -3 -61 -5z"/>
<path d="M2864 6451 c-92 -11 -104 -39 -104 -241 0 -218 15 -243 151 -261 78
-10 230 -5 265 8 45 17 102 250 75 309 -6 14 -11 43 -11 66 0 35 -6 47 -39 78
-36 35 -43 37 -122 43 -94 8 -140 7 -215 -2z"/>
<path d="M15315 5922 c-2 -3 -21 -8 -42 -13 -159 -35 -307 -117 -396 -220
-128 -148 -151 -178 -177 -233 -17 -33 -30 -67 -30 -74 0 -7 -9 -38 -20 -69
-11 -32 -20 -76 -20 -99 0 -22 -5 -56 -11 -73 -11 -33 -7 -84 23 -241 26 -140
200 -390 309 -445 25 -13 51 -30 58 -39 7 -8 61 -34 119 -58 l107 -42 155 -4
c295 -7 460 51 634 224 138 138 158 170 225 359 20 57 35 259 23 307 -6 24
-14 68 -18 98 -4 34 -25 92 -55 156 -27 55 -49 106 -49 112 0 7 -21 34 -47 61
-27 27 -62 67 -80 89 -21 26 -48 45 -77 55 -24 8 -76 36 -115 61 -70 46 -103
57 -231 78 -64 11 -277 18 -285 10z m194 -363 c141 -24 277 -137 315 -262 40
-128 40 -125 28 -227 -14 -122 -40 -192 -94 -256 -137 -162 -296 -193 -509
-100 -53 22 -134 119 -164 195 -113 280 37 618 287 650 35 5 65 9 67 10 2 0
34 -4 70 -10z"/>
<path d="M16889 5898 c-13 -5 -67 -8 -119 -7 -88 3 -147 -12 -187 -45 -23 -20
-28 -176 -34 -1009 l-4 -427 27 -27 c45 -45 244 -60 303 -23 57 35 67 72 72
264 5 180 12 236 28 239 6 0 32 -30 58 -68 43 -63 64 -99 132 -223 56 -103
151 -219 183 -223 4 -1 61 -3 127 -5 172 -5 205 10 205 93 0 54 -15 99 -45
136 -76 93 -95 120 -95 135 0 10 -20 42 -44 73 -51 65 -89 146 -82 174 3 11
29 32 60 49 61 31 85 51 136 115 81 101 99 161 99 321 1 157 -7 173 -158 340
-70 77 -121 93 -356 110 -213 15 -282 17 -306 8z m288 -350 c134 -40 164 -281
43 -343 -36 -19 -128 -38 -183 -39 -71 0 -77 16 -80 201 -3 204 -2 205 112
197 42 -3 90 -10 108 -16z"/>
<path d="M18014 5901 c-133 -9 -158 -36 -175 -190 l-12 -102 28 -29 c32 -33
46 -36 189 -46 148 -9 142 1 140 -254 -7 -811 -7 -836 10 -868 29 -56 65 -67
206 -65 202 4 200 -1 205 517 5 455 13 642 29 655 7 6 64 12 129 14 156 5 188
31 200 169 7 71 -14 130 -66 187 l-22 23 -190 -7 c-104 -4 -212 -7 -240 -6
-27 1 -115 3 -195 4 -80 2 -186 1 -236 -2z"/>
<path d="M12873 5891 c-24 -4 -55 -18 -69 -32 -55 -51 -57 -65 -61 -329 -8
-671 -21 -766 -112 -827 -100 -68 -271 -58 -348 19 -73 73 -83 157 -80 678 l1
345 -27 52 c-46 90 -53 93 -189 93 l-119 0 -41 -38 -41 -39 -6 -184 c-9 -265
-4 -784 7 -854 26 -154 59 -224 146 -310 109 -107 229 -149 476 -166 185 -12
231 -8 362 36 198 67 306 186 351 390 31 135 52 599 42 885 l-7 195 -43 43
c-39 38 -47 42 -92 42 -28 0 -63 2 -79 4 -16 2 -48 1 -71 -3z"/>
<path d="M14075 5895 c-5 -2 -121 -5 -257 -7 -275 -4 -270 -3 -301 -76 -24
-54 -32 -283 -32 -867 0 -564 0 -561 70 -591 44 -18 241 -22 272 -5 59 31 82
153 85 463 0 75 5 111 14 118 7 7 82 13 182 16 238 6 282 26 296 137 7 59 -8
130 -36 169 -20 29 -22 29 -86 22 -78 -8 -326 14 -350 32 -23 16 -19 200 4
224 12 12 53 15 225 17 267 3 275 6 286 141 9 120 -51 202 -150 202 -29 0 -88
2 -132 5 -44 3 -84 3 -90 0z"/>
<path d="M7570 5865 c-93 -47 -85 23 -88 -746 -3 -699 -2 -728 36 -771 31 -36
695 -20 884 21 195 42 315 257 283 507 -10 77 -17 100 -37 122 -14 15 -35 44
-47 64 -13 22 -47 53 -82 74 -69 43 -72 52 -22 85 85 55 123 142 123 277 -1
92 -13 139 -48 176 -16 17 -32 39 -35 49 -4 9 -27 30 -52 46 -25 16 -54 40
-65 54 -35 45 -146 58 -525 62 -275 2 -282 2 -325 -20z m554 -307 c69 -17 106
-65 106 -135 0 -102 -54 -142 -201 -151 -84 -4 -88 -4 -113 21 -25 25 -26 30
-26 145 0 81 4 122 13 131 13 14 151 7 221 -11z m13 -579 c122 -27 168 -78
158 -174 -9 -76 -17 -91 -63 -114 -82 -42 -281 -56 -322 -23 -20 17 -22 26
-22 149 0 140 2 150 36 163 30 12 156 12 213 -1z"/>
<path d="M9310 5878 c-15 -6 -65 -7 -127 -3 -123 8 -152 -4 -189 -77 l-24 -47
-5 -638 c-4 -680 -4 -692 45 -746 l28 -32 394 -1 c221 -1 401 2 410 8 33 16
60 87 65 168 11 149 -22 168 -302 175 -223 6 -217 2 -213 139 4 117 1 116 211
116 230 0 277 31 277 180 0 71 -1 73 -39 111 l-39 39 -98 1 c-314 4 -309 1
-308 145 2 132 -11 124 230 131 267 8 277 14 278 158 0 97 -25 156 -74 173
-40 14 -486 14 -520 0z"/>
<path d="M10634 5881 c-71 -18 -116 -80 -139 -188 -4 -15 -15 -48 -24 -73 -50
-124 -71 -182 -71 -201 0 -11 -5 -30 -12 -42 -6 -12 -29 -71 -50 -132 -22 -60
-53 -148 -70 -195 -16 -47 -34 -98 -39 -115 -4 -16 -22 -68 -40 -115 -17 -47
-40 -112 -51 -145 -10 -33 -28 -80 -38 -105 -51 -126 -45 -207 18 -231 51 -20
221 -7 276 21 46 23 52 30 83 105 65 156 37 145 365 144 220 0 250 -2 269 -18
23 -19 59 -102 59 -139 0 -79 57 -113 189 -115 102 -2 192 25 206 60 10 27
-16 176 -36 209 -10 17 -19 43 -19 56 0 14 -11 56 -23 94 -13 38 -40 121 -61
184 -20 63 -46 132 -57 152 -10 20 -19 44 -19 53 0 9 -9 33 -20 55 -26 51 -49
121 -47 140 3 21 -112 359 -132 389 -9 14 -23 43 -31 65 -25 65 -83 84 -290
90 -91 3 -179 2 -196 -3z m227 -381 c4 -14 22 -68 39 -120 17 -52 40 -131 51
-175 11 -44 31 -117 45 -161 41 -130 43 -129 -206 -125 -146 2 -169 15 -137
78 8 15 18 46 22 68 4 22 15 67 25 100 11 33 38 121 61 195 22 74 45 143 51
153 13 25 41 17 49 -13z"/>
</g>
<g transform="translate(0.000000,1020.000000) scale(0.100000,-0.100000)" fill="#F7F5F1">
<path d="M3242 9299 c-24 -12 -55 -40 -72 -63 -15 -23 -36 -48 -45 -56 -9 -7
-25 -30 -36 -49 -10 -20 -42 -67 -69 -106 -28 -38 -97 -140 -155 -225 -57 -85
-148 -218 -200 -295 -53 -77 -104 -153 -113 -169 -10 -16 -33 -49 -52 -75 -20
-25 -49 -66 -66 -91 -89 -133 -245 -362 -279 -410 -21 -30 -77 -111 -124 -180
-46 -69 -112 -165 -145 -213 -34 -48 -72 -105 -86 -127 -14 -21 -45 -67 -70
-102 -105 -150 -229 -331 -269 -393 -14 -22 -40 -58 -57 -80 -17 -22 -39 -53
-48 -70 -9 -16 -54 -84 -101 -150 -47 -66 -99 -140 -115 -165 -16 -25 -49 -74
-75 -110 -25 -36 -66 -94 -90 -130 -44 -66 -130 -192 -225 -330 -28 -41 -60
-84 -69 -95 -60 -67 -47 -95 43 -95 91 1 137 26 234 127 l82 87 22 -21 c20
-21 21 -28 20 -325 -1 -167 -4 -343 -7 -393 -3 -49 -7 -124 -9 -165 -2 -45
-10 -89 -20 -108 -17 -32 -89 -92 -111 -92 -32 0 -567 -262 -735 -360 -69 -40
-110 -86 -110 -121 0 -32 47 -85 100 -113 112 -61 209 -33 455 129 62 41 241
127 313 150 53 17 54 17 75 -4 25 -25 28 -208 12 -796 -10 -370 -10 -327 4
-565 14 -245 25 -366 40 -440 7 -30 14 -65 17 -77 5 -27 34 -31 34 -5 0 9 5
58 10 107 5 50 16 250 25 445 8 195 22 452 30 570 9 118 20 280 25 360 16 238
54 524 74 555 20 30 208 100 406 150 36 9 83 21 105 27 22 7 65 15 95 19 30 5
116 17 190 28 74 11 186 20 248 21 112 0 114 0 143 -29 39 -40 37 -69 -13
-154 -42 -73 -278 -319 -373 -390 -23 -18 -75 -59 -116 -92 -116 -95 -270
-200 -466 -319 -61 -37 -129 -83 -150 -101 -37 -32 -38 -33 -20 -53 66 -73
206 -86 417 -39 259 59 271 60 560 60 226 0 286 -3 337 -17 34 -9 104 -23 155
-31 111 -16 165 -35 232 -77 54 -35 120 -127 131 -181 3 -18 11 -51 17 -75 23
-91 -42 -287 -128 -382 -38 -42 -132 -110 -152 -110 -6 0 -55 -21 -109 -46
-54 -25 -152 -64 -218 -86 -66 -22 -128 -44 -138 -49 -9 -6 -66 -25 -125 -44
-179 -56 -262 -85 -382 -135 -63 -26 -149 -60 -190 -76 -94 -34 -552 -266
-725 -366 -373 -215 -573 -349 -700 -468 -27 -25 -66 -59 -85 -74 -40 -33
-178 -191 -221 -254 -27 -39 -29 -50 -29 -131 0 -87 0 -89 27 -99 93 -36 234
-48 402 -33 147 13 198 27 351 93 282 122 536 236 670 300 181 86 176 84 285
147 50 29 110 61 134 72 25 11 59 30 75 43 31 23 181 116 267 165 25 14 67 43
95 64 27 20 81 58 119 84 39 25 86 60 106 77 19 17 78 65 129 106 52 41 117
98 145 125 72 73 252 233 283 252 15 9 57 36 94 60 64 42 367 193 387 193 5 0
34 12 65 26 80 36 164 38 201 4 46 -43 48 -57 56 -295 12 -330 39 -597 69
-679 36 -94 121 -141 178 -99 38 29 41 59 37 343 -15 852 -19 819 91 853 32
10 88 29 124 42 60 21 310 93 405 116 22 6 63 17 90 25 28 7 75 20 105 28 30
7 93 25 140 39 231 69 289 80 315 63 31 -20 27 55 30 -555 2 -288 7 -542 11
-565 4 -23 8 -88 10 -146 5 -201 41 -439 71 -472 22 -25 78 -23 104 3 20 20
21 28 15 173 -15 376 -18 748 -7 910 6 94 13 290 17 435 5 270 8 290 47 316
29 19 253 76 447 114 228 45 351 71 386 82 17 5 37 9 46 9 9 0 21 6 27 14 23
28 -14 37 -205 46 -185 10 -373 2 -621 -26 -47 -5 -55 -3 -79 21 -31 31 -31
97 0 340 9 66 23 183 32 260 8 77 18 158 20 180 9 71 55 367 75 480 22 117 29
164 54 345 39 281 45 300 93 300 15 0 43 5 62 10 20 5 74 12 120 14 47 3 114
10 150 16 36 6 103 15 149 20 280 31 300 53 81 90 -30 5 -93 16 -140 24 -47 8
-134 20 -195 26 -60 6 -122 16 -137 22 -31 11 -196 186 -253 268 -22 30 -61
80 -87 112 -27 31 -63 80 -81 110 -35 58 -63 96 -114 157 -18 21 -33 43 -33
49 0 6 -15 30 -33 54 -19 24 -50 69 -69 99 -20 31 -64 92 -99 137 -80 103
-147 195 -178 247 -13 22 -38 56 -56 75 -18 19 -40 49 -50 65 -20 37 -69 105
-155 216 -61 78 -143 191 -182 249 -9 14 -35 50 -57 80 -22 30 -53 75 -68 100
-15 25 -49 71 -75 104 -27 32 -60 79 -75 105 -14 25 -39 60 -54 76 -15 17 -37
51 -48 77 -11 26 -29 52 -40 58 -12 6 -33 28 -46 48 -14 20 -40 56 -58 79 -55
71 -71 93 -117 164 -25 37 -71 102 -103 144 -33 42 -79 113 -104 158 -25 45
-63 102 -84 126 -82 93 -15 132 123 72 24 -11 61 -23 83 -27 22 -4 52 -15 67
-25 14 -11 33 -19 42 -19 9 0 55 -16 104 -35 48 -19 112 -41 142 -49 30 -7 75
-22 100 -31 25 -9 70 -25 100 -35 57 -20 152 -54 375 -134 72 -26 144 -52 160
-58 17 -5 100 -35 185 -65 85 -31 191 -68 235 -83 44 -15 96 -35 115 -45 34
-18 85 -36 245 -90 44 -15 114 -40 155 -57 41 -17 89 -34 105 -39 17 -4 73
-24 125 -44 52 -20 121 -45 153 -55 32 -10 64 -23 70 -28 7 -6 53 -24 102 -40
187 -62 227 -106 171 -188 -14 -21 -26 -42 -26 -47 0 -9 -20 -41 -169 -267
-63 -96 -130 -204 -147 -240 -18 -36 -44 -76 -59 -90 -15 -14 -38 -46 -51 -72
-13 -26 -28 -49 -34 -53 -29 -18 7 -75 48 -75 18 0 313 304 362 373 8 12 48
56 89 97 40 41 84 91 97 112 12 20 41 51 63 70 22 18 69 66 103 107 61 72 99
97 183 122 64 20 306 59 361 59 33 0 97 7 144 15 47 8 102 15 122 15 21 0 57
4 80 10 78 17 182 32 278 40 52 4 136 15 185 24 138 25 251 38 355 41 91 2
148 10 270 40 82 20 215 28 240 15 13 -7 31 -8 54 -2 43 12 66 0 49 -25 -7
-10 -20 -33 -28 -52 -8 -19 -32 -54 -53 -77 -87 -101 -109 -130 -154 -198 -31
-45 -48 -82 -48 -101 0 -31 -13 -52 -125 -205 -33 -45 -67 -92 -75 -104 -38
-56 -220 -306 -270 -371 -17 -22 -41 -55 -53 -72 -12 -18 -52 -74 -89 -125
-37 -51 -80 -111 -95 -132 -109 -152 -167 -177 -481 -206 -124 -12 -152 -18
-152 -35 0 -29 487 -41 576 -14 117 35 257 160 374 333 25 37 54 79 66 94 12
15 55 78 97 139 42 62 103 147 134 189 32 42 73 97 91 122 83 119 151 210 287
386 50 64 124 163 165 220 138 191 150 206 175 206 44 0 57 -13 144 -144 48
-72 101 -151 118 -176 37 -54 191 -287 251 -379 53 -83 145 -232 197 -321 117
-199 169 -240 303 -240 45 0 83 5 89 11 15 15 -27 97 -92 184 -25 33 -57 82
-72 108 -16 27 -42 67 -58 90 -17 23 -53 78 -80 122 -27 43 -81 128 -120 187
-38 59 -100 153 -136 210 -189 293 -233 360 -287 438 -33 47 -69 104 -81 127
-11 23 -38 60 -60 83 l-39 41 -108 -6 c-60 -3 -127 -10 -149 -15 -22 -5 -59
-10 -82 -10 -23 0 -68 -7 -100 -15 -31 -8 -84 -15 -118 -15 -33 0 -78 -5 -100
-10 -22 -5 -85 -14 -140 -19 -55 -6 -165 -20 -245 -31 -80 -12 -190 -25 -245
-30 -55 -5 -176 -20 -270 -34 -93 -14 -197 -26 -230 -26 -33 -1 -82 -5 -110
-11 -27 -5 -93 -13 -145 -18 -119 -12 -311 -38 -370 -51 -127 -26 -409 -3
-490 40 -11 6 -45 19 -77 30 -32 10 -94 32 -138 48 -44 17 -136 50 -205 75
-69 25 -147 54 -175 65 -27 11 -66 25 -85 32 -19 7 -78 28 -130 47 -203 73
-377 135 -420 150 -25 8 -76 27 -115 43 -68 28 -179 70 -280 105 -27 9 -86 31
-130 47 -44 16 -98 36 -120 43 -51 17 -238 85 -330 120 -77 29 -172 63 -280
100 -60 20 -196 70 -325 119 -19 8 -93 35 -165 60 -71 25 -164 60 -205 76
-320 126 -376 140 -438 109z m79 -366 c16 -10 69 -70 116 -133 48 -63 99 -131
113 -150 15 -19 33 -46 40 -60 7 -13 34 -51 59 -85 62 -80 106 -142 138 -190
14 -22 56 -80 92 -130 37 -49 74 -101 84 -115 10 -14 31 -43 48 -65 16 -22 41
-58 56 -80 14 -22 62 -89 108 -150 45 -60 103 -139 128 -175 52 -74 89 -125
185 -258 37 -51 83 -115 102 -143 19 -28 54 -76 77 -107 103 -139 126 -171
176 -239 117 -162 226 -314 292 -409 22 -31 51 -70 65 -87 14 -16 43 -58 65
-92 44 -69 77 -115 145 -204 25 -33 70 -96 100 -141 30 -45 74 -107 98 -138
24 -32 57 -81 74 -110 l30 -53 -21 -177 c-12 -97 -28 -224 -36 -282 -23 -156
-34 -236 -45 -330 -6 -47 -15 -119 -19 -160 -5 -41 -14 -113 -20 -160 -15
-127 -49 -528 -71 -845 -17 -230 -20 -241 -76 -266 -25 -10 -60 -19 -79 -19
-18 0 -52 -7 -75 -15 -23 -8 -56 -15 -73 -15 -17 0 -58 -6 -91 -14 -34 -8
-101 -21 -151 -29 -117 -21 -142 -26 -190 -38 -22 -6 -71 -17 -110 -25 -120
-25 -147 -32 -235 -54 -143 -36 -184 -37 -215 -6 l-26 26 6 173 c7 170 14 256
34 372 6 33 15 103 20 155 6 52 15 127 21 165 5 39 14 111 20 160 15 125 59
413 69 455 5 19 12 55 16 80 4 25 14 59 23 75 22 42 21 149 -1 207 -48 123
-214 193 -332 139 -80 -37 -82 -43 -59 -210 4 -24 1 -60 -5 -80 -6 -20 -13
-99 -15 -176 -5 -152 -24 -379 -56 -688 -11 -110 -22 -265 -25 -345 -14 -411
-30 -567 -62 -611 -40 -54 -169 -111 -284 -127 -62 -8 -70 7 -79 148 -14 205
-112 346 -334 476 -57 34 -113 62 -123 62 -10 0 -28 6 -39 14 -33 23 -135 56
-176 56 -20 0 -48 4 -61 9 -14 5 -76 15 -138 21 -370 36 -389 41 -389 90 0 24
150 152 319 272 87 62 266 272 301 353 28 66 33 182 10 230 -31 63 -97 120
-198 170 -120 59 -176 69 -407 69 -254 -1 -344 -12 -615 -79 -58 -15 -127 -31
-155 -36 -27 -5 -66 -14 -86 -20 -48 -15 -75 0 -88 49 -6 22 -8 235 -6 520 3
515 1 535 -39 583 -14 17 -26 40 -26 52 0 28 228 382 363 564 26 35 54 76 62
91 8 15 38 59 66 97 28 39 58 81 66 95 51 79 119 178 138 200 12 14 45 63 74
109 28 45 71 108 94 138 23 31 71 100 107 154 36 53 94 139 130 191 111 161
164 239 185 272 11 18 30 46 43 62 13 16 50 70 83 119 32 50 74 110 92 135 17
25 51 74 75 110 23 36 74 110 112 165 87 124 138 197 170 245 24 36 54 78 121
168 36 48 69 55 120 25z m-785 -6624 c29 -32 15 -46 -219 -221 -54 -40 -140
-105 -192 -144 -52 -40 -118 -86 -147 -103 -29 -18 -74 -46 -100 -64 -280
-190 -670 -396 -1023 -539 -93 -38 -337 -118 -360 -118 -69 0 -80 61 -18 109
15 12 87 69 160 126 72 57 180 137 240 178 59 41 144 99 189 129 44 30 111 72
150 93 38 22 89 53 114 70 25 17 79 47 121 68 42 20 106 54 141 75 36 21 132
68 214 106 82 37 163 75 179 83 17 9 41 19 55 23 14 5 63 25 110 45 223 96
350 124 386 84z"/>
<path d="M18115 3930 c-298 -32 -534 -200 -608 -435 -86 -272 -6 -527 208
-663 53 -33 224 -106 395 -168 298 -107 391 -195 376 -356 -18 -176 -94 -243
-321 -283 -139 -25 -297 26 -431 139 -36 31 -68 56 -72 56 -15 0 -252 -238
-252 -253 0 -30 123 -130 206 -168 214 -97 437 -116 704 -61 161 33 337 147
416 269 88 137 118 235 118 393 -1 304 -126 442 -529 580 -397 137 -485 204
-485 372 0 127 100 242 225 259 27 4 74 10 103 14 104 15 228 -19 355 -97 75
-46 70 -48 211 99 113 120 115 124 69 165 -27 25 -181 95 -233 107 -25 6 -65
17 -89 26 -47 16 -232 19 -366 5z"/>
<path d="M10727 3924 c-3 -3 -32 -10 -64 -14 -240 -32 -414 -117 -596 -290
-363 -346 -431 -1005 -151 -1458 129 -207 416 -400 659 -443 51 -9 153 -14
280 -14 187 0 207 2 310 28 369 96 656 352 776 692 63 180 73 249 64 450 -9
228 -38 349 -126 525 -139 278 -446 483 -777 519 -109 12 -365 15 -375 5z
m358 -336 c356 -101 574 -436 548 -844 -3 -57 -14 -120 -24 -149 -11 -27 -19
-57 -19 -66 0 -30 -71 -170 -115 -227 -159 -208 -371 -303 -641 -289 -170 9
-304 60 -441 169 -100 79 -206 248 -233 373 -6 28 -18 71 -26 96 -8 29 -14 89
-14 156 0 348 138 598 405 733 154 78 386 98 560 48z"/>
<path d="M12744 3882 c-123 -2 -165 -6 -173 -16 -9 -10 -13 -292 -16 -1049 -4
-976 -4 -1035 13 -1050 22 -20 283 -20 303 0 13 13 19 333 22 1178 l2 520 24
0 c25 0 70 -68 71 -107 0 -14 60 -174 121 -320 10 -26 19 -54 19 -62 0 -8 6
-30 14 -48 24 -56 108 -287 152 -418 38 -113 103 -290 121 -330 9 -19 19 -48
23 -65 5 -16 18 -55 30 -85 27 -69 58 -156 71 -197 19 -63 58 -83 163 -83 122
0 110 -14 200 235 18 50 51 137 74 195 48 125 156 411 187 495 12 33 31 83 42
110 11 28 30 79 42 115 13 36 36 101 53 145 16 44 45 121 63 170 59 161 66
177 82 209 68 133 83 -18 74 -764 -7 -607 -6 -892 3 -898 6 -3 72 -8 146 -10
200 -5 177 -93 185 713 14 1499 14 1392 -4 1409 -15 14 -50 15 -277 8 l-259
-7 -32 -60 c-18 -33 -33 -67 -33 -76 0 -9 -8 -36 -19 -60 -10 -24 -37 -93 -60
-154 -23 -60 -57 -146 -76 -190 -18 -44 -50 -125 -70 -180 -20 -55 -50 -134
-66 -175 -31 -76 -37 -91 -84 -215 -80 -208 -128 -322 -145 -339 -31 -31 -60
5 -99 122 -18 53 -48 133 -66 177 -40 96 -75 187 -121 315 -35 96 -60 161
-133 351 -23 58 -50 130 -60 160 -11 30 -33 92 -51 139 -17 47 -38 104 -46
127 -9 23 -21 46 -27 51 -15 12 -172 18 -383 14z"/>
<path d="M15553 3868 c-13 -14 -16 -72 -19 -375 -3 -197 -7 -538 -10 -758 -6
-475 -6 -422 -5 -716 0 -209 2 -237 17 -250 15 -12 737 -17 1381 -9 46 0 53
22 53 159 0 95 -4 131 -13 140 -10 7 -165 10 -526 9 l-512 -1 -22 22 c-21 21
-22 29 -25 295 -2 227 0 275 11 285 11 8 146 13 488 17 390 5 477 9 489 21 18
17 17 267 -1 289 -9 11 -93 13 -470 9 l-459 -5 -25 25 -25 25 1 245 c1 279 0
274 77 276 26 0 225 2 442 4 217 2 421 4 452 4 48 1 59 5 69 22 17 33 16 268
-2 280 -8 4 -315 7 -682 6 -612 -2 -670 -3 -684 -19z"/>
<path d="M7477 3865 c-21 -20 -22 -98 -22 -1143 0 -836 2 -954 15 -962 25 -16
305 -13 319 4 8 9 12 147 15 455 4 378 6 445 19 459 14 16 59 17 503 16 l487
-1 21 -24 c21 -24 21 -33 20 -458 -1 -398 0 -435 16 -451 22 -22 295 -17 318
5 11 10 15 197 18 1048 3 1018 3 1035 -16 1052 -25 23 -294 15 -318 -9 -11
-11 -14 -89 -13 -401 1 -380 -2 -417 -32 -436 -21 -14 -951 -7 -979 7 -40 21
-41 30 -40 439 1 209 -3 387 -8 395 -13 20 -303 25 -323 5z"/>
<path d="M12225 1051 c-157 -42 -228 -220 -149 -372 75 -146 341 -137 428 14
126 220 -32 424 -279 358z m144 -55 c141 -73 146 -294 8 -357 -162 -73 -329
120 -244 282 42 78 158 115 236 75z"/>
<path d="M5392 1036 c-125 -59 -101 -218 37 -256 89 -24 130 -106 75 -149 -32
-25 -62 -26 -111 -6 -45 19 -58 19 -78 -1 -52 -53 143 -81 216 -31 45 30 83
99 74 135 -10 38 -78 99 -127 112 -141 39 -124 184 18 150 73 -18 113 11 62
44 -45 28 -108 29 -166 2z"/>
<path d="M6655 1054 c-59 -8 -72 -14 -118 -49 -116 -89 -137 -271 -43 -373 80
-88 268 -88 365 1 75 69 96 231 41 318 -44 71 -151 116 -245 103z m103 -73
c123 -63 150 -225 53 -322 -112 -112 -312 -8 -311 163 1 135 139 220 258 159z"/>
<path d="M9425 1041 c-113 -51 -170 -194 -130 -327 43 -146 255 -189 397 -81
108 83 113 292 8 380 -58 50 -197 64 -275 28z m174 -50 c185 -95 122 -394 -78
-366 -134 18 -201 133 -161 276 24 87 151 134 239 90z"/>
<path d="M13731 1044 c-19 -14 -21 -45 -25 -387 0 -46 25 -77 48 -58 11 9 16
37 18 99 3 85 4 87 29 90 37 4 73 -29 119 -113 41 -75 68 -96 104 -82 12 5 4
26 -35 102 l-51 95 37 33 c87 76 90 179 7 214 -49 21 -224 26 -251 7z m184
-48 c97 -41 72 -135 -41 -152 -65 -9 -89 10 -97 77 -10 84 44 114 138 75z"/>
<path d="M14927 1043 c-22 -25 -29 -401 -8 -427 26 -31 41 -1 41 84 0 96 2 98
116 102 81 3 89 5 89 23 0 18 -8 20 -77 23 -72 3 -78 5 -103 34 -22 26 -25 37
-20 67 11 57 18 61 115 61 68 0 91 4 101 16 22 26 -7 34 -127 34 -93 0 -113
-3 -127 -17z"/>
<path d="M16333 1044 c-8 -21 14 -34 54 -34 19 0 43 -10 60 -24 l27 -24 -3
-169 c-2 -146 0 -171 14 -183 28 -23 33 1 38 188 6 206 9 212 71 212 45 0 83
20 72 38 -11 19 -326 15 -333 -4z"/>
<path d="M17379 1044 c-10 -12 -14 -54 -15 -158 -1 -123 -4 -147 -23 -184 -36
-71 -96 -89 -165 -49 -70 39 -81 71 -81 234 0 149 -8 180 -40 153 -18 -15 -22
-279 -5 -342 24 -85 146 -141 231 -105 106 44 132 108 131 310 -1 143 -8 171
-33 141z"/>
<path d="M17849 1044 c-21 -23 -26 -418 -7 -430 24 -15 40 29 34 90 -7 68 3
86 46 86 36 0 87 -50 123 -120 31 -60 61 -87 82 -74 27 17 25 26 -22 99 -55
85 -55 89 -6 134 75 69 75 168 0 207 -52 26 -229 32 -250 8z m180 -53 c49 -26
63 -44 59 -78 -7 -61 -117 -95 -170 -53 -29 22 -46 113 -27 137 17 19 94 16
138 -6z"/>
<path d="M18565 1043 c-12 -11 -15 -49 -17 -171 -3 -297 -11 -282 157 -282
122 0 151 8 126 33 -6 6 -51 13 -101 15 -86 4 -92 6 -116 35 -21 25 -24 37
-19 66 11 57 18 61 115 61 60 0 91 4 99 13 19 24 -9 37 -77 37 -74 0 -96 10
-117 50 -41 78 -15 102 118 109 93 6 102 8 102 26 0 19 -7 20 -128 21 -100 1
-131 -1 -142 -13z"/>
<path d="M7332 1038 c-18 -18 -17 -432 2 -447 28 -23 37 13 41 160 2 78 8 146
14 152 14 14 51 -12 82 -59 104 -160 165 -247 180 -255 25 -13 65 -11 77 4 18
21 19 436 2 447 -30 19 -39 -12 -46 -155 -8 -158 -15 -177 -51 -143 -25 23
-168 233 -179 263 -14 35 -97 58 -122 33z"/>
<path d="M8645 1034 c-17 -18 -22 -407 -6 -433 25 -39 51 25 51 124 0 49 27
68 97 65 86 -4 103 -2 110 16 10 26 -17 35 -83 28 -81 -8 -124 23 -124 90 0
64 19 76 122 76 88 0 125 14 96 37 -22 17 -245 14 -263 -3z"/>
<path d="M10176 1034 c-23 -22 -24 -415 -1 -434 32 -27 44 -5 47 86 3 99 15
116 65 99 20 -7 37 -28 60 -70 43 -82 95 -140 116 -132 25 9 21 26 -23 107
-49 88 -49 88 -4 131 83 79 83 159 1 209 -43 27 -236 29 -261 4z m163 -34 c49
-14 81 -47 81 -85 0 -44 -25 -63 -93 -71 -78 -9 -97 7 -97 86 0 79 24 95 109
70z"/>
<path d="M11325 1040 c-7 -12 -8 -10 63 -120 72 -110 92 -163 89 -239 -2 -63
10 -88 37 -78 13 5 16 23 16 88 0 90 18 133 96 235 55 73 67 99 49 114 -18 15
-65 -30 -107 -103 -18 -30 -34 -47 -46 -47 -21 0 -68 49 -114 119 -28 41 -68
56 -83 31z"/>
<path d="M12942 1038 c-17 -17 -17 -316 0 -355 38 -89 109 -125 205 -103 117
26 149 85 158 296 5 130 4 142 -13 158 -19 16 -21 16 -37 0 -14 -15 -16 -29
-11 -85 11 -106 -3 -234 -28 -272 -31 -46 -88 -63 -138 -41 -80 36 -99 90 -92
263 5 138 -7 176 -44 139z"/>
<path d="M15594 1038 c-4 -6 -10 -82 -12 -168 -4 -142 -3 -161 16 -203 57
-128 282 -113 334 23 24 63 26 331 3 350 -28 23 -33 -1 -37 -165 -3 -180 -10
-199 -71 -229 -56 -26 -92 -21 -137 20 -51 46 -57 73 -53 219 2 66 1 130 -2
143 -6 24 -29 30 -41 10z"/>
<path d="M4080 1025 c-11 -13 -10 -25 8 -68 11 -29 46 -117 78 -197 62 -161
76 -182 113 -178 23 3 32 17 74 118 26 63 66 156 88 205 43 98 47 120 24 129
-25 9 -41 -18 -89 -151 -80 -217 -101 -225 -162 -58 -80 220 -97 245 -134 200z"/>
<path d="M4862 1028 c-21 -21 -17 -422 4 -443 14 -14 19 -14 31 -3 20 21 24
417 4 441 -16 20 -23 21 -39 5z"/>
<path d="M6010 1030 c-17 -11 -16 -426 2 -448 27 -32 35 9 42 219 8 232 3 259
-44 229z"/>
<path d="M3007 1012 c-10 -10 -29 -47 -43 -83 -14 -35 -53 -124 -86 -197 -46
-104 -57 -136 -48 -147 17 -21 35 -9 56 36 24 54 37 59 144 59 99 0 110 -5
163 -84 13 -18 26 -26 40 -24 32 4 27 37 -23 148 -23 52 -60 138 -81 190 -49
119 -82 147 -122 102z m62 -139 c33 -66 46 -120 32 -137 -33 -39 -124 -21
-136 27 -7 26 18 103 42 129 24 27 41 22 62 -19z"/>
</g></svg>