<svg xmlns="http://www.w3.org/2000/svg" viewBox="0 0 1200 900" preserveAspectRatio="xMidYMid slice"><defs><linearGradient id="g" x1="0" y1="0" x2="1" y2="1"><stop offset="0" stop-color="#33383E"/><stop offset="1" stop-color="#2A2E33"/></linearGradient></defs><rect width="1200" height="900" fill="url(#g)"/><g stroke="#F7F5F1" stroke-opacity="0.25" stroke-width="2.5" fill="none"><rect x="-40" y="533" width="155" height="427"/><rect x="-22" y="847" width="16" height="22"/><rect x="40" y="557" width="16" height="22"/><rect x="40" y="750" width="16" height="22"/><rect x="40" y="847" width="16" height="22"/><rect x="181" y="481" width="217" height="479"/><rect x="199" y="505" width="16" height="22"/><rect x="199" y="593" width="16" height="22"/><rect x="199" y="681" width="16" height="22"/><rect x="199" y="768" width="16" height="22"/><rect x="199" y="856" width="16" height="22"/><rect x="261" y="505" width="16" height="22"/><rect x="261" y="593" width="16" height="22"/><rect x="261" y="681" width="16" height="22"/><rect x="324" y="505" width="16" height="22"/><rect x="324" y="593" width="16" height="22"/><rect x="324" y="768" width="16" height="22"/><rect x="324" y="856" width="16" height="22"/><rect x="422" y="545" width="205" height="415"/><rect x="440" y="569" width="16" height="22"/><rect x="440" y="663" width="16" height="22"/><rect x="440" y="756" width="16" height="22"/><rect x="440" y="850" width="16" height="22"/><rect x="498" y="663" width="16" height="22"/><rect x="498" y="850" width="16" height="22"/><rect x="557" y="569" width="16" height="22"/><rect x="557" y="663" width="16" height="22"/><rect x="557" y="756" width="16" height="22"/><rect x="557" y="850" width="16" height="22"/><rect x="656" y="661" width="255" height="299"/><rect x="674" y="685" width="16" height="22"/><rect x="674" y="771" width="16" height="22"/><rect x="730" y="685" width="16" height="22"/><rect x="730" y="771" width="16" height="22"/><rect x="786" y="685" width="16" height="22"/><rect x="786" y="771" width="16" height="22"/><rect x="786" y="858" width="16" height="22"/><rect x="843" y="685" width="16" height="22"/><rect x="975" y="482" width="229" height="478"/><rect x="993" y="506" width="16" height="22"/><rect x="993" y="594" width="16" height="22"/><rect x="993" y="681" width="16" height="22"/><rect x="1059" y="594" width="16" height="22"/><rect x="1059" y="769" width="16" height="22"/><rect x="1059" y="856" width="16" height="22"/><rect x="1126" y="506" width="16" height="22"/><rect x="1126" y="594" width="16" height="22"/><rect x="1126" y="681" width="16" height="22"/><rect x="1126" y="769" width="16" height="22"/><rect x="1126" y="856" width="16" height="22"/></g><g stroke="#F7F5F1" stroke-opacity="0.3" stroke-width="2.5" fill="none"><line x1="880" y1="130" x2="880" y2="620"/><line x1="700" y1="170" x2="1120" y2="170"/><line x1="880" y1="130" x2="700" y2="170"/><line x1="880" y1="130" x2="1120" y2="170"/><line x1="1060" y1="170" x2="1060" y2="260"/><rect x="1042" y="260" width="36" height="30"/></g></svg>