<svg xmlns="http://www.w3.org/2000/svg" viewBox="0 0 1200 900" preserveAspectRatio="xMidYMid slice"><defs><linearGradient id="g" x1="0" y1="0" x2="1" y2="1"><stop offset="0" stop-color="#D8D3C6"/><stop offset="1" stop-color="#CCC6B7"/></linearGradient></defs><rect width="1200" height="900" fill="url(#g)"/><g stroke="#2E3238" stroke-opacity="0.25" stroke-width="2.5" fill="none"><rect x="-40" y="728" width="220" height="232"/><rect x="-22" y="752" width="16" height="22"/><rect x="41" y="752" width="16" height="22"/><rect x="41" y="848" width="16" height="22"/><rect x="105" y="752" width="16" height="22"/><rect x="105" y="848" width="16" height="22"/><rect x="228" y="679" width="200" height="281"/><rect x="246" y="783" width="16" height="22"/><rect x="303" y="783" width="16" height="22"/><rect x="359" y="703" width="16" height="22"/><rect x="359" y="864" width="16" height="22"/><rect x="475" y="539" width="136" height="421"/><rect x="493" y="563" width="16" height="22"/><rect x="493" y="754" width="16" height="22"/><rect x="546" y="754" width="16" height="22"/><rect x="546" y="849" width="16" height="22"/><rect x="677" y="415" width="193" height="545"/><rect x="695" y="523" width="16" height="22"/><rect x="695" y="607" width="16" height="22"/><rect x="695" y="692" width="16" height="22"/><rect x="695" y="776" width="16" height="22"/><rect x="695" y="860" width="16" height="22"/><rect x="749" y="692" width="16" height="22"/><rect x="804" y="439" width="16" height="22"/><rect x="804" y="523" width="16" height="22"/><rect x="804" y="607" width="16" height="22"/><rect x="804" y="692" width="16" height="22"/><rect x="804" y="776" width="16" height="22"/><rect x="935" y="492" width="193" height="468"/><rect x="953" y="516" width="16" height="22"/><rect x="953" y="687" width="16" height="22"/><rect x="953" y="773" width="16" height="22"/><rect x="953" y="858" width="16" height="22"/><rect x="1007" y="516" width="16" height="22"/><rect x="1007" y="602" width="16" height="22"/><rect x="1007" y="773" width="16" height="22"/><rect x="1007" y="858" width="16" height="22"/><rect x="1062" y="516" width="16" height="22"/><rect x="1062" y="602" width="16" height="22"/><rect x="1062" y="687" width="16" height="22"/><rect x="1062" y="773" width="16" height="22"/><rect x="1062" y="858" width="16" height="22"/><rect x="1165" y="486" width="248" height="474"/><rect x="1183" y="510" width="16" height="22"/><rect x="1183" y="597" width="16" height="22"/><rect x="1183" y="684" width="16" height="22"/><rect x="1183" y="857" width="16" height="22"/><rect x="1238" y="510" width="16" height="22"/><rect x="1238" y="597" width="16" height="22"/><rect x="1238" y="684" width="16" height="22"/><rect x="1238" y="770" width="16" height="22"/><rect x="1238" y="857" width="16" height="22"/><rect x="1292" y="510" width="16" height="22"/><rect x="1292" y="684" width="16" height="22"/><rect x="1292" y="770" width="16" height="22"/><rect x="1346" y="510" width="16" height="22"/><rect x="1346" y="597" width="16" height="22"/><rect x="1346" y="684" width="16" height="22"/><rect x="1346" y="770" width="16" height="22"/></g></svg>