<svg xmlns="http://www.w3.org/2000/svg" viewBox="0 0 1200 900" preserveAspectRatio="xMidYMid slice"><defs><linearGradient id="g" x1="0" y1="0" x2="1" y2="1"><stop offset="0" stop-color="#8C2F33"/><stop offset="1" stop-color="#7E2A2E"/></linearGradient></defs><rect width="1200" height="900" fill="url(#g)"/><g stroke="#F7F5F1" stroke-opacity="0.25" stroke-width="2.5" fill="none"><rect x="-40" y="476" width="161" height="484"/><rect x="-22" y="500" width="16" height="22"/><rect x="-22" y="678" width="16" height="22"/><rect x="-22" y="766" width="16" height="22"/><rect x="-22" y="855" width="16" height="22"/><rect x="44" y="500" width="16" height="22"/><rect x="44" y="589" width="16" height="22"/><rect x="44" y="855" width="16" height="22"/><rect x="161" y="553" width="252" height="407"/><rect x="179" y="669" width="16" height="22"/><rect x="179" y="760" width="16" height="22"/><rect x="179" y="852" width="16" height="22"/><rect x="234" y="577" width="16" height="22"/><rect x="234" y="669" width="16" height="22"/><rect x="234" y="760" width="16" height="22"/><rect x="290" y="669" width="16" height="22"/><rect x="290" y="760" width="16" height="22"/><rect x="290" y="852" width="16" height="22"/><rect x="346" y="669" width="16" height="22"/><rect x="346" y="760" width="16" height="22"/><rect x="346" y="852" width="16" height="22"/><rect x="438" y="499" width="191" height="461"/><rect x="456" y="523" width="16" height="22"/><rect x="456" y="607" width="16" height="22"/><rect x="456" y="776" width="16" height="22"/><rect x="510" y="691" width="16" height="22"/><rect x="510" y="776" width="16" height="22"/><rect x="510" y="860" width="16" height="22"/><rect x="563" y="523" width="16" height="22"/><rect x="563" y="607" width="16" height="22"/><rect x="563" y="691" width="16" height="22"/><rect x="683" y="411" width="208" height="549"/><rect x="701" y="435" width="16" height="22"/><rect x="701" y="520" width="16" height="22"/><rect x="701" y="859" width="16" height="22"/><rect x="760" y="435" width="16" height="22"/><rect x="760" y="605" width="16" height="22"/><rect x="760" y="859" width="16" height="22"/><rect x="820" y="435" width="16" height="22"/><rect x="820" y="605" width="16" height="22"/><rect x="820" y="690" width="16" height="22"/><rect x="820" y="774" width="16" height="22"/><rect x="820" y="859" width="16" height="22"/><rect x="944" y="427" width="157" height="533"/><rect x="962" y="648" width="16" height="22"/><rect x="962" y="747" width="16" height="22"/><rect x="962" y="845" width="16" height="22"/><rect x="1026" y="451" width="16" height="22"/><rect x="1026" y="550" width="16" height="22"/><rect x="1026" y="747" width="16" height="22"/><rect x="1026" y="845" width="16" height="22"/><rect x="1133" y="641" width="231" height="319"/><rect x="1151" y="758" width="16" height="22"/><rect x="1151" y="851" width="16" height="22"/><rect x="1218" y="665" width="16" height="22"/><rect x="1218" y="758" width="16" height="22"/><rect x="1218" y="851" width="16" height="22"/><rect x="1285" y="665" width="16" height="22"/><rect x="1285" y="758" width="16" height="22"/><rect x="1285" y="851" width="16" height="22"/></g><g stroke="#F7F5F1" stroke-opacity="0.3" stroke-width="2.5" fill="none"><line x1="880" y1="130" x2="880" y2="620"/><line x1="700" y1="170" x2="1120" y2="170"/><line x1="880" y1="130" x2="700" y2="170"/><line x1="880" y1="130" x2="1120" y2="170"/><line x1="1060" y1="170" x2="1060" y2="260"/><rect x="1042" y="260" width="36" height="30"/></g></svg>