<svg xmlns="http://www.w3.org/2000/svg" viewBox="0 0 1200 900" preserveAspectRatio="xMidYMid slice"><defs><linearGradient id="g" x1="0" y1="0" x2="1" y2="1"><stop offset="0" stop-color="#E4E0D6"/><stop offset="1" stop-color="#D8D3C6"/></linearGradient></defs><rect width="1200" height="900" fill="url(#g)"/><g stroke="#2E3238" stroke-opacity="0.25" stroke-width="2.5" fill="none"><rect x="-40" y="697" width="146" height="263"/><rect x="-22" y="721" width="16" height="22"/><rect x="-22" y="832" width="16" height="22"/><rect x="36" y="832" width="16" height="22"/><rect x="138" y="608" width="228" height="352"/><rect x="156" y="632" width="16" height="22"/><rect x="156" y="736" width="16" height="22"/><rect x="156" y="840" width="16" height="22"/><rect x="222" y="632" width="16" height="22"/><rect x="222" y="736" width="16" height="22"/><rect x="222" y="840" width="16" height="22"/><rect x="288" y="736" width="16" height="22"/><rect x="407" y="416" width="124" height="544"/><rect x="425" y="440" width="16" height="22"/><rect x="425" y="524" width="16" height="22"/><rect x="425" y="608" width="16" height="22"/><rect x="425" y="692" width="16" height="22"/><rect x="425" y="776" width="16" height="22"/><rect x="425" y="860" width="16" height="22"/><rect x="472" y="440" width="16" height="22"/><rect x="472" y="608" width="16" height="22"/><rect x="472" y="776" width="16" height="22"/><rect x="472" y="860" width="16" height="22"/><rect x="600" y="684" width="181" height="276"/><rect x="618" y="787" width="16" height="22"/><rect x="618" y="865" width="16" height="22"/><rect x="668" y="787" width="16" height="22"/><rect x="668" y="865" width="16" height="22"/><rect x="719" y="708" width="16" height="22"/><rect x="719" y="787" width="16" height="22"/><rect x="719" y="865" width="16" height="22"/><rect x="822" y="731" width="208" height="229"/><rect x="840" y="850" width="16" height="22"/><rect x="899" y="755" width="16" height="22"/><rect x="899" y="850" width="16" height="22"/><rect x="959" y="850" width="16" height="22"/><rect x="1069" y="686" width="234" height="274"/><rect x="1087" y="710" width="16" height="22"/><rect x="1087" y="788" width="16" height="22"/><rect x="1087" y="866" width="16" height="22"/><rect x="1155" y="710" width="16" height="22"/><rect x="1223" y="710" width="16" height="22"/><rect x="1223" y="788" width="16" height="22"/><rect x="1223" y="866" width="16" height="22"/></g></svg>