<svg xmlns="http://www.w3.org/2000/svg" viewBox="0 0 1200 900" preserveAspectRatio="xMidYMid slice"><defs><linearGradient id="g" x1="0" y1="0" x2="1" y2="1"><stop offset="0" stop-color="#9C4348"/><stop offset="1" stop-color="#8C2F33"/></linearGradient></defs><rect width="1200" height="900" fill="url(#g)"/><g stroke="#F7F5F1" stroke-opacity="0.25" stroke-width="2.5" fill="none"><rect x="-40" y="419" width="132" height="541"/><rect x="-22" y="443" width="16" height="22"/><rect x="-22" y="526" width="16" height="22"/><rect x="-22" y="610" width="16" height="22"/><rect x="-22" y="694" width="16" height="22"/><rect x="-22" y="777" width="16" height="22"/><rect x="-22" y="860" width="16" height="22"/><rect x="29" y="610" width="16" height="22"/><rect x="29" y="694" width="16" height="22"/><rect x="29" y="777" width="16" height="22"/><rect x="29" y="860" width="16" height="22"/><rect x="120" y="620" width="187" height="340"/><rect x="138" y="644" width="16" height="22"/><rect x="138" y="744" width="16" height="22"/><rect x="138" y="844" width="16" height="22"/><rect x="190" y="744" width="16" height="22"/><rect x="190" y="844" width="16" height="22"/><rect x="243" y="644" width="16" height="22"/><rect x="243" y="744" width="16" height="22"/><rect x="370" y="701" width="170" height="259"/><rect x="388" y="725" width="16" height="22"/><rect x="388" y="834" width="16" height="22"/><rect x="458" y="725" width="16" height="22"/><rect x="458" y="834" width="16" height="22"/><rect x="603" y="734" width="154" height="226"/><rect x="621" y="758" width="16" height="22"/><rect x="621" y="851" width="16" height="22"/><rect x="683" y="851" width="16" height="22"/><rect x="794" y="592" width="245" height="368"/><rect x="812" y="616" width="16" height="22"/><rect x="812" y="698" width="16" height="22"/><rect x="812" y="780" width="16" height="22"/><rect x="866" y="698" width="16" height="22"/><rect x="866" y="780" width="16" height="22"/><rect x="866" y="862" width="16" height="22"/><rect x="920" y="616" width="16" height="22"/><rect x="920" y="698" width="16" height="22"/><rect x="920" y="780" width="16" height="22"/><rect x="920" y="862" width="16" height="22"/><rect x="973" y="780" width="16" height="22"/><rect x="1076" y="443" width="139" height="517"/><rect x="1094" y="467" width="16" height="22"/><rect x="1094" y="562" width="16" height="22"/><rect x="1094" y="658" width="16" height="22"/><rect x="1094" y="753" width="16" height="22"/><rect x="1094" y="849" width="16" height="22"/><rect x="1148" y="467" width="16" height="22"/><rect x="1148" y="562" width="16" height="22"/><rect x="1148" y="658" width="16" height="22"/><rect x="1148" y="753" width="16" height="22"/><rect x="1148" y="849" width="16" height="22"/></g></svg>