<svg xmlns="http://www.w3.org/2000/svg" viewBox="0 0 1600 420"><g stroke="#F7F5F1" stroke-width="2" fill="none"><rect x="-30" y="173" width="152" height="247"/><rect x="-14" y="193" width="13" height="18"/><rect x="-14" y="264" width="13" height="18"/><rect x="-14" y="335" width="13" height="18"/><rect x="48" y="193" width="13" height="18"/><rect x="174" y="151" width="156" height="269"/><rect x="190" y="171" width="13" height="18"/><rect x="190" y="328" width="13" height="18"/><rect x="254" y="249" width="13" height="18"/><rect x="254" y="328" width="13" height="18"/><rect x="364" y="103" width="169" height="317"/><rect x="380" y="123" width="13" height="18"/><rect x="427" y="217" width="13" height="18"/><rect x="427" y="312" width="13" height="18"/><rect x="474" y="123" width="13" height="18"/><rect x="474" y="217" width="13" height="18"/><rect x="474" y="312" width="13" height="18"/><rect x="576" y="241" width="115" height="179"/><rect x="592" y="334" width="13" height="18"/><rect x="636" y="334" width="13" height="18"/><rect x="721" y="178" width="197" height="242"/><rect x="737" y="198" width="13" height="18"/><rect x="737" y="267" width="13" height="18"/><rect x="737" y="337" width="13" height="18"/><rect x="793" y="267" width="13" height="18"/><rect x="850" y="198" width="13" height="18"/><rect x="975" y="249" width="128" height="171"/><rect x="991" y="269" width="13" height="18"/><rect x="991" y="338" width="13" height="18"/><rect x="1041" y="269" width="13" height="18"/><rect x="1041" y="338" width="13" height="18"/><rect x="1132" y="206" width="214" height="214"/><rect x="1148" y="226" width="13" height="18"/><rect x="1148" y="316" width="13" height="18"/><rect x="1210" y="226" width="13" height="18"/><rect x="1272" y="226" width="13" height="18"/><rect x="1272" y="316" width="13" height="18"/><rect x="1371" y="97" width="150" height="323"/><rect x="1387" y="262" width="13" height="18"/><rect x="1387" y="334" width="13" height="18"/><rect x="1448" y="117" width="13" height="18"/><rect x="1448" y="189" width="13" height="18"/><rect x="1448" y="262" width="13" height="18"/><rect x="1448" y="334" width="13" height="18"/><rect x="1580" y="234" width="138" height="186"/><rect x="1596" y="254" width="13" height="18"/><rect x="1596" y="330" width="13" height="18"/><rect x="1651" y="330" width="13" height="18"/></g></svg>